<svg xmlns="http://www.w3.org/2000/svg" width="32" height="32" viewBox="0 0 32 32"><defs><style>.a{fill:none;}.b{fill:#4285f4;}</style></defs><circle class="a" cx="16" cy="16" r="16"/><path class="b" d="M4.819,11.5a.87.87,0,0,1,.007,1.225L.778,16.776H25.651a.865.865,0,0,1,0,1.731H.784l4.048,4.054a.876.876,0,0,1-.007,1.225.862.862,0,0,1-1.218-.007l-5.486-5.526h0a.972.972,0,0,1-.18-.273.826.826,0,0,1-.067-.333.868.868,0,0,1,.246-.606l5.486-5.526A.848.848,0,0,1,4.819,11.5Z" transform="translate(3.9 -1.735)"/></svg>