<svg xmlns="http://www.w3.org/2000/svg" width="32" height="32" viewBox="0 0 32 32"><defs><style>.a{fill:none;}.b{fill:#4285f4;}</style></defs><g transform="translate(-357 -2602.018)"><circle class="a" cx="16" cy="16" r="16" transform="translate(357 2602.018)"/><path class="b" d="M19.566,11.5a.87.87,0,0,0-.007,1.225l4.048,4.054H-1.266a.862.862,0,0,0-.859.865.862.862,0,0,0,.859.865H23.6l-4.048,4.054a.876.876,0,0,0,.007,1.225.862.862,0,0,0,1.218-.007l5.486-5.526h0a.972.972,0,0,0,.18-.273.826.826,0,0,0,.067-.333.868.868,0,0,0-.246-.606l-5.486-5.526A.848.848,0,0,0,19.566,11.5Z" transform="translate(360.716 2600.283)"/></g></svg>