<svg xmlns="http://www.w3.org/2000/svg" width="50" height="50" viewBox="0 0 50 50"><defs><style>.a{fill:none;}.b{fill:#4285f4;}</style></defs><g transform="translate(-674.564 -6898.543)"><circle class="a" cx="25" cy="25" r="25" transform="translate(674.564 6898.543)"/><g transform="translate(675.178 6904.939)"><path class="b" d="M46.846,82.495a1.9,1.9,0,0,0,1.9-1.9V68.117A7.626,7.626,0,0,0,41.133,60.5H7.617A7.626,7.626,0,0,0,0,68.117V90.112a7.626,7.626,0,0,0,7.617,7.617H41.133a7.626,7.626,0,0,0,7.617-7.617,1.9,1.9,0,0,0-3.809,0,3.813,3.813,0,0,1-3.809,3.809H7.617a3.813,3.813,0,0,1-3.809-3.809V68.521L20.353,78.808a7.57,7.57,0,0,0,8.045,0L44.942,68.521v12.07A1.9,1.9,0,0,0,46.846,82.495Zm-20.46-6.921a3.785,3.785,0,0,1-4.022,0L5.4,65.024a3.788,3.788,0,0,1,2.22-.715H41.133a3.788,3.788,0,0,1,2.22.715Z" transform="translate(0 -60.5)"/></g></g></svg>