<svg xmlns="http://www.w3.org/2000/svg" width="10.543" height="19.5" viewBox="0 0 10.543 19.5"><defs><style>.a{fill:#4285f4;}</style></defs><g transform="translate(-1086 -53)"><path class="a" d="M32.223,0,29.694,0a4.441,4.441,0,0,0-4.677,4.8V7.012H22.475a.4.4,0,0,0-.4.4v3.206a.4.4,0,0,0,.4.4h2.543V19.1a.4.4,0,0,0,.4.4h3.317a.4.4,0,0,0,.4-.4v-8.09H32.1a.4.4,0,0,0,.4-.4V7.41a.4.4,0,0,0-.4-.4H29.13V5.136c0-.9.215-1.359,1.389-1.359h1.7a.4.4,0,0,0,.4-.4V.4A.4.4,0,0,0,32.223,0Z" transform="translate(1063.923 53)"/></g></svg>