<svg xmlns="http://www.w3.org/2000/svg" xmlns:xlink="http://www.w3.org/1999/xlink" width="100" height="100" viewBox="0 0 100 100"><defs><style>.a{fill:#fff;stroke:#d5dbe5;}.b{fill:#3f55a2;}.c{stroke:none;}.d{fill:none;}.e{filter:url(#a);}</style><filter id="a" x="0" y="0" width="100" height="100" filterUnits="userSpaceOnUse"><feOffset dy="4" input="SourceAlpha"/><feGaussianBlur stdDeviation="6" result="b"/><feFlood flood-opacity="0.102"/><feComposite operator="in" in2="b"/><feComposite in="SourceGraphic"/></filter></defs><g transform="translate(-316 -6255)"><g class="e" transform="matrix(1, 0, 0, 1, 316, 6255)"><g class="a" transform="translate(18 14)"><rect class="c" width="64" height="64"/><rect class="d" x="0.5" y="0.5" width="63" height="63"/></g></g><g transform="translate(343.043 6279.23)"><g transform="translate(16.957 9.77)"><path class="b" d="M34.513,0l-3.1,0c-3.482,0-5.733,2.309-5.733,5.882V8.595H22.564a.487.487,0,0,0-.487.488v3.93a.487.487,0,0,0,.487.487h3.116v9.916a.487.487,0,0,0,.487.487h4.066a.487.487,0,0,0,.487-.487V13.5h3.644a.487.487,0,0,0,.487-.487V9.082a.488.488,0,0,0-.488-.488H30.722V6.3c0-1.105.263-1.666,1.7-1.666h2.088A.487.487,0,0,0,35,4.141V.492A.488.488,0,0,0,34.513,0Z" transform="translate(-22.077)"/></g></g></g></svg>