<svg xmlns="http://www.w3.org/2000/svg" width="230.429" height="248.733" viewBox="0 0 230.429 248.733"><defs><style>.a{fill:#e9ebf0;}</style></defs><g transform="translate(-121.582 -156.423)"><path class="a" d="M147.349,211.988V156.423H127.738V346.65h19.611V231.6h53.208V269.84h19.611V231.6h34.319V211.988Z" transform="translate(6.823)"/><path class="a" d="M146,164.64v19.611H250.919v57.362H217.581v19.611h33.339v39.222H270.53v-116.2h54.421V164.64Z" transform="translate(27.06 9.106)"/><path class="a" d="M267.946,183.942V296.215H216.958V259.444H197.347v36.771h-35.3v19.611h105.9v58.833h19.611V183.942Z" transform="translate(44.843 30.497)"/><path class="a" d="M194.633,319.369V261.516H225.52V241.905H194.633V201.539H175.022v117.83h-53.44V338.98H295.63V319.369Z" transform="translate(0 49.997)"/></g></svg>