<svg xmlns="http://www.w3.org/2000/svg" xmlns:xlink="http://www.w3.org/1999/xlink" width="100" height="100" viewBox="0 0 100 100"><defs><style>.a{fill:#fff;stroke:#d5dbe5;}.b{fill:#2677ba;}.c{stroke:none;}.d{fill:none;}.e{filter:url(#a);}</style><filter id="a" x="0" y="0" width="100" height="100" filterUnits="userSpaceOnUse"><feOffset dy="4" input="SourceAlpha"/><feGaussianBlur stdDeviation="6" result="b"/><feFlood flood-opacity="0.102"/><feComposite operator="in" in2="b"/><feComposite in="SourceGraphic"/></filter></defs><g transform="translate(-410 -6255)"><g class="e" transform="matrix(1, 0, 0, 1, 410, 6255)"><g class="a" transform="translate(18 14)"><rect class="c" width="64" height="64"/><rect class="d" x="0.5" y="0.5" width="63" height="63"/></g></g><g transform="translate(433.65 6275.65)"><g transform="translate(14.35 13.35)"><path class="b" d="M23.992,24H24V15.2c0-4.305-.927-7.622-5.96-7.622a5.225,5.225,0,0,0-4.706,2.587h-.07V7.976H8.489V24h4.969V16.064c0-2.089.4-4.108,2.983-4.108,2.549,0,2.587,2.384,2.587,4.242V24Z" transform="translate(-0.001 -0.001)"/><path class="b" d="M.4,7.977H5.371V24H.4Z" transform="translate(0 -0.001)"/><path class="b" d="M2.882,0A2.9,2.9,0,1,0,5.763,2.882,2.883,2.883,0,0,0,2.882,0Z"/></g></g></g></svg>