<svg xmlns="http://www.w3.org/2000/svg" width="21.938" height="17.82" viewBox="0 0 21.938 17.82"><defs><style>.a{fill:#4285f4;}</style></defs><g transform="translate(0)"><path class="a" d="M21.939,59.549a8.987,8.987,0,0,1-2.584.709,4.519,4.519,0,0,0,1.978-2.488,9.073,9.073,0,0,1-2.86,1.093,4.5,4.5,0,0,0-7.669,4.1,12.777,12.777,0,0,1-9.275-4.7,4.506,4.506,0,0,0,1.393,6.007,4.5,4.5,0,0,1-2.038-.565v.056a4.5,4.5,0,0,0,3.609,4.413,4.559,4.559,0,0,1-1.186.158,4.319,4.319,0,0,1-.847-.084,4.5,4.5,0,0,0,4.2,3.126A9.029,9.029,0,0,1,1.074,73.3,9.565,9.565,0,0,1,0,73.236a12.721,12.721,0,0,0,6.9,2.025,12.716,12.716,0,0,0,12.8-12.8l-.015-.583A8.987,8.987,0,0,0,21.939,59.549Z" transform="translate(-0.001 -57.441)"/></g></svg>