<svg xmlns="http://www.w3.org/2000/svg" width="711" height="510.591" viewBox="0 0 711 510.591">
	<rect width="50.796" height="18.917" transform="translate(433.344 32.229)" fill="#4285f4" opacity="0.3"/>
	<rect width="50.796" height="18.917" transform="translate(517.77)" fill="#4285f4" opacity="0.3"/>
	<rect width="50.796" height="18.917" transform="translate(521.273 58.503)" fill="#4285f4" opacity="0.3"/>
	<rect width="50.796" height="18.917" transform="translate(358.727 80.222)" fill="#4285f4" opacity="0.3"/>
	<rect width="50.796" height="18.917" transform="translate(342.613 157.992)" fill="#4285f4" opacity="0.3"/>
	<rect width="50.796" height="18.917" transform="translate(419.332 156.24)" fill="#4285f4" opacity="0.3"/>
	<path d="M803.76,14.856l-33.63,31.91,37.133,26.712" transform="translate(-285.99 -5.517)" fill="none" stroke="#3f3d56" stroke-miterlimit="10" stroke-width="1"/>
	<line x1="49.219" y2="38.973" transform="translate(384.125 41.25)" fill="none" stroke="#3f3d56" stroke-miterlimit="10" stroke-width="1"/>
	<path d="M585.4,216.54,601.515,157.7l60.6,57.1" transform="translate(-217.39 -58.563)" fill="none" stroke="#3f3d56" stroke-miterlimit="10" stroke-width="1"/>
	<rect width="50.796" height="18.917" transform="translate(90.731 51.717)" fill="#4285f4" opacity="0.3"/>
	<rect width="50.796" height="18.917" transform="translate(175.157 19.488)" fill="#4285f4" opacity="0.3"/>
	<rect width="50.796" height="18.917" transform="translate(178.66 77.991)" fill="#4285f4" opacity="0.3"/>
	<rect width="50.796" height="18.917" transform="translate(16.114 99.71)" fill="#4285f4" opacity="0.3"/>
	<rect width="50.796" height="18.917" transform="translate(0 177.48)" fill="#4285f4" opacity="0.3"/>
	<rect width="50.796" height="18.917" transform="translate(76.719 175.728)" fill="#4285f4" opacity="0.3"/>
	<path d="M258.76,45.856l-33.63,31.91,37.133,26.712" transform="translate(-83.603 -17.029)" fill="none" stroke="#3f3d56" stroke-miterlimit="10" stroke-width="1"/>
	<line x1="49.219" y2="38.973" transform="translate(41.512 60.738)" fill="none" stroke="#3f3d56" stroke-miterlimit="10" stroke-width="1"/>
	<path d="M40.4,247.54,56.515,188.7l60.6,57.1" transform="translate(-15.003 -70.075)" fill="none" stroke="#3f3d56" stroke-miterlimit="10" stroke-width="1"/>
	<line x2="57.605" transform="translate(229.456 87.449)" fill="none" stroke="#3f3d56" stroke-miterlimit="10" stroke-width="1"/>
	<rect width="59.721" height="18.859" transform="translate(261.203 77.767)" fill="#4285f4"/>
	<line x2="37.726" transform="translate(321.002 87.197)" fill="none" stroke="#3f3d56" stroke-miterlimit="10" stroke-width="1"/>
	<line x1="34.964" y1="58.37" transform="translate(225.953 28.827)" fill="none" stroke="#3f3d56" stroke-miterlimit="10" stroke-width="1"/>
	<ellipse cx="276.605" cy="61.607" rx="276.605" ry="61.607" transform="translate(157.79 387.376)" fill="#f2f2f2"/>
	<path d="M874.123,391.611,847.15,526.752h-5.839l-.642-1-1.86-2.894,23.357-126.244,3.546-1.485Z" transform="translate(-311.494 -145.426)" fill="#b8c0ce"/>
	<path d="M865.712,397.21,840.669,527.833l-1.86-2.894,23.357-126.244Z" transform="translate(-311.494 -147.505)" opacity="0.1"/>
	<path d="M930.613,578.648l-6.935,2.235-1.685.545-2.225-5.005L881.6,402.33l3.968-.889,8.336-1.869Z" transform="translate(-327.386 -148.382)" fill="#b8c0ce"/>
	<path d="M923.679,581.988l-1.685.545-2.225-5.005L881.6,403.434l3.968-.889Z" transform="translate(-327.386 -149.486)" opacity="0.1"/>
	<path d="M424.437,391.611,418.32,566.794l-7.011,1.557-.5.111-1.947-3.615,3.893-171.569,3.746-.534Z" transform="translate(-151.833 -145.426)" fill="#b8c0ce"/>
	<path d="M416.5,393.415l-5.195,175.606-.5.111-1.947-3.615,3.893-171.568Z" transform="translate(-151.833 -146.096)" opacity="0.1"/>
	<path d="M464.642,630.61l-7.252,1.251-.812.139-2.224-4.727L419.039,398.422l1.018-.309,5.378-1.638Z" transform="translate(-155.611 -147.232)" fill="#b8c0ce"/>
	<path d="M457.39,632.828l-.812.139-2.224-4.727L419.039,399.39l1.018-.309Z" transform="translate(-155.611 -148.2)" opacity="0.1"/>
	<path d="M770.246,407.364l27,34.5a8.756,8.756,0,0,0,7.914,3.3L916,432.184a8.756,8.756,0,0,0,7.737-8.7V397.91Z" transform="translate(-307.721 -175.361)" fill="#b3bbc9"/>
	<path d="M880.388,377.9H887.9v10.836a2.79,2.79,0,0,1-2.79,2.79h-1.929a2.79,2.79,0,0,1-2.79-2.79V377.9Z" transform="translate(-326.934 -140.334)" fill="#47465a"/>
	<path d="M453.539,442.308l27,34.5a8.756,8.756,0,0,0,7.914,3.3L599.3,467.128a8.756,8.756,0,0,0,7.737-8.7V432.853Z" transform="translate(-190.111 -188.337)" fill="#b3bbc9"/>
	<path d="M465.559,425.779l329.7-38.4a4.848,4.848,0,0,0,1.62-9.146L737.9,348.568a68.263,68.263,0,0,0-37.595-6.926L407.394,371.509A5.607,5.607,0,0,0,403.962,381l34.11,35A33.113,33.113,0,0,0,465.559,425.779Z" transform="translate(-171.11 -154.335)" fill="#d5dbe5"/>
	<path d="M1078.488,405.166l-3.527-1.949s-3.807,2.8-6.909,14.61,5.8.128,5.8.128l3.893-8.064Z" transform="translate(-418.069 -177.331)" fill="#7d95bc"/>
	<path d="M940.4,559.251s-3.615,16.962-5.283,21.689c-.818,2.314-4.766,4.43-9.143,6.048a61.218,61.218,0,0,1-11.99,3.128c-4.727.556-65.346-8.9-94.821-15.294-19.857-4.307-22.423-9.249-21.984-12.013a4.011,4.011,0,0,1,1.129-2.169s29.2-19.743,39.486-29.2,30.588-1.946,52.833,1.947S940.4,559.251,940.4,559.251Z" transform="translate(-317.707 -223.249)" fill="#b7bfcb"/>
	<path d="M1047.39,403.217s13.625,8.9-32.256,27.251c0,0-24.938,14.061-21.692,71.982a15.886,15.886,0,0,0,2.309,7.356c4.734,7.786,14.878,27.5-2.029,29.942V544.2s30.588-15.294,33.924-28.363,14.459-85.645,20.021-92.319S1056.845,406.276,1047.39,403.217Z" transform="translate(-390.498 -177.331)" fill="#b7bfcb"/>
	<path d="M925.972,608.22a61.213,61.213,0,0,1-11.99,3.128c-4.727.556-65.346-8.9-94.821-15.294-19.857-4.307-22.423-9.249-21.984-12.013,13.052,4.463,55.436,18.628,70.646,19.8,18.075,1.39,52.605,5.255,55.222,2.628C924.051,605.455,925.08,606.523,925.972,608.22Z" transform="translate(-317.706 -244.481)" opacity="0.1"/>
	<path d="M749.457,728.094l26.417-120.682s4.727-12.791,15.572-12.235l10.01,5.006s-16.684-3.893-20.3,8.9-26.694,119.013-26.694,119.013Z" transform="translate(-300.001 -248.61)" fill="#8d9bb1"/>
	<path d="M815.808,631.614l10.566-73.688H831.1l-10.845,73.688Z" transform="translate(-302.953 -207.187)" fill="#8d9bb1"/>
	<path d="M1005.407,746.283,995.4,631.163s0-9.732,5.005-14.46,21.163-18.212,21.163-18.212,4.141-.975,7.478,8.48,26.417,104,26.417,104l-4.449,1.946-28.642-109-19.743,18.631s-3.893,6.952-1.946,13.347,9.176,110.393,9.176,110.393Z" transform="translate(-391.332 -249.836)" fill="#8d9bb1"/>
	<path d="M927.717,579.158l25.026,7.229L958.3,581.1l-14.459-1.946Z" transform="translate(-344.51 -215.072)" fill="#8d9bb1"/>
	<path d="M608.305,292.591l4.058,60.868,88.7-8.62-3.53-59.5a5.984,5.984,0,0,0-6.476-5.609l-77.287,6.5A5.984,5.984,0,0,0,608.305,292.591Z" transform="translate(-247.579 -131.466)" fill="#f6f7fb"/>
	<path d="M699.218,356.53l-88.426,9.647-3.337.364-25.86-16.684v-3.615l87.869-7.913Z" transform="translate(-215.977 -125.639)" fill="#f6f7fb"/>
	<path d="M610.792,371.075l-3.337.364-25.86-16.684v-3.237Z" transform="translate(-215.977 -130.537)" opacity="0.1"/>
	<path d="M583.364,251.923l3.059,54.223,77.859-7.229L661.5,246.084Z" transform="translate(-216.634 -91.384)" fill="#c2c9d6"/>
	<path d="M657.233,364.035l9.454,6.4,28.641-2.781-9.733-6.117Z" transform="translate(-244.065 -134.256)" fill="#a9b0bc" opacity="0.4"/>
	<path d="M595.749,348.857l11.957,8.9,76.469-7.229-13.625-8.9Z" transform="translate(-221.233 -126.864)" fill="#c2c9d6"/>
	<rect width="56.448" height="56.448" transform="translate(510.213 139.824)" fill="#ff6584"/>
	<rect width="56.448" height="56.448" transform="translate(510.213 139.824)" opacity="0.1"/>
	<path d="M876.358,301.726s7.963,21.566,0,25.548,28.534,0,28.534,0l10.285-8.295s-23.225-6.636-19.907-21.9S876.358,301.726,876.358,301.726Z" transform="translate(-346.704 -135.779)" fill="#fbbebe"/>
	<path d="M876.358,301.726s7.963,21.566,0,25.548,28.534,0,28.534,0l10.285-8.295s-23.225-6.636-19.907-21.9S876.358,301.726,876.358,301.726Z" transform="translate(-346.704 -135.779)" opacity="0.1"/>
	<path d="M773.056,649.52s29.861,42.137,24.884,53.75-2.322,18.912-12.276,22.894-12.608,11.281-3.982,10.949,19.907-2.654,21.566-5.64,5.64-17.253,11.281-19.244,16.257-9.622,8.626-18.912-26.859-43.509-25.374-46.971S773.056,649.52,773.056,649.52Z" transform="translate(-308.765 -267.247)" fill="#fbbebe"/>
	<path d="M823.672,519.512s-61.713,3.982-77.638,18.912,13.935,70.671,17.253,71.335,29.2-1.991,28.2-9.29-18.58-37.161-18.58-37.161,22.893-8.295,35.5-10.285,26.543-11.281,26.543-11.281Z" transform="translate(-297.005 -220.518)" fill="#14406d"/>
	<path d="M827.417,503.95s1,36.829,10.285,38.156,0-28.2,0-28.2l-.332-11.281Z" transform="translate(-328.952 -214.246)" fill="#fbbebe"/>
	<path d="M854.051,350.609S836.8,345.632,833.48,358.9s-4.313,59.059-4.313,59.059l-5.972,36.5s10.949-3.318,13.271-1.659L850.4,435.215Z" transform="translate(-327.384 -157.456)" fill="#4285f4"/>
	<path d="M854.051,350.609S836.8,345.632,833.48,358.9s-4.313,59.059-4.313,59.059l-5.972,36.5s10.949-3.318,13.271-1.659L850.4,435.215Z" transform="translate(-327.384 -151.326)" opacity="0.1"/>
	<path d="M901.62,663.225s11.6,22.8,18.563,22.464,13.6-4.645,16.921,8.958-.664,9.954,3.318,17.917,4.645,21.9-2.986,25.216-14.6,3.65-14.931,0,6.636-3.65-1.327-16.59-24.884-36.5-31.852-38.819S901.62,663.225,901.62,663.225Z" transform="translate(-351.378 -273.886)" fill="#fbbebe"/>
	<path d="M902.82,497.873s23.889,39.815,8.295,51.427-62.045,33.843-62.045,33.843,24.884,16.921,26.211,22.562-11.944,20.9-16.589,21.235-18.248-15.262-32.847-19.244-23.557-32.515-7.631-43.133,30.856-28.2,30.856-28.2l-4.642-25.544Z" transform="translate(-322.402 -212.482)" fill="#14406d"/>
	<path d="M892.876,271.706c0,14.11-14.453,25.774-28.563,25.774a25.548,25.548,0,1,1,0-51.1C878.422,246.384,892.876,257.6,892.876,271.706Z" transform="translate(-333.166 -119.091)" fill="#fbbebe"/>
	<path d="M871.043,338.533s22.894-9.954,22.894-11.281,13.272,2.986,16.258,5.64,4.645,2.323,6.636,7.631-9.954,54.745-9.954,54.745,6.636,38.156,10.286,41.806-29.529,8.958-29.529,8.958-21.9,3.981-25.548,5.64-10.285,3.982-8.958,0,6.968-6.968-2.654-11.944c0,0,3.318-16.258,0-23.557s-18.58-33.843-6.3-53.086,17.917-26.211,17.917-26.211S866.4,340.524,871.043,338.533Z" transform="translate(-333.426 -149.03)" fill="#4285f4"/>
	<path d="M868.287,489.428s-25.88,11.478-33.677,12.541S803.256,509,816.2,514.312s32.515-2.654,32.515-2.654l27.539-11.613Z" transform="translate(-323.371 -209.346)" fill="#fbbebe"/>
	<path d="M923.219,343.365s9.557-4.623,12.211,11.635,11.944,67.685,0,75.316-39.483,19.907-39.483,19.907-16.258-10.949-8.627-14.931,25.88-15.262,28.534-19.244,5.336-48.423.691-55.722S923.219,343.365,923.219,343.365Z" transform="translate(-350.44 -154.88)" opacity="0.1"/>
	<path d="M924.37,337.425s13.272-.664,15.926,15.594,11.945,67.685,0,75.316-39.483,19.907-39.483,19.907-16.258-10.949-8.627-14.931,25.88-15.262,28.534-19.244-1.991-45.456-6.636-52.755S924.37,337.425,924.37,337.425Z" transform="translate(-352.247 -152.898)" fill="#4285f4"/>
	<path d="M852.091,218.423c-4.073.554-8.442,2.044-10.492,5.608-1,1.744-1.327,3.789-2.1,5.646-2.132,5.125-7.31,8.186-11.048,12.289-4.872,5.348-7.291,13.406-4.418,20.045,1.113,2.571,2.919,4.773,4.29,7.217,3.823,6.817,4.027,15,4.136,22.817l.214,15.365a22.086,22.086,0,0,1-.648,6.977,7.472,7.472,0,0,1-4.521,5.04,11.718,11.718,0,0,0,13.646-4.66,11.975,11.975,0,0,1-3.66,10.624c6.083-1.433,11.184-5.857,14.4-11.216s4.7-11.594,5.372-17.807a23.344,23.344,0,0,0-.561-9.822,30.754,30.754,0,0,0-3.218-6.18c-3.121-5.126-5.932-10.578-6.938-16.494s0-12.408,3.846-17.019a15.374,15.374,0,0,1,12.142-5.568,13.518,13.518,0,0,1,11.271,6.9c.887,1.671,2.151,3.935,3.949,3.348a9.762,9.762,0,0,0,.974-.478c2.006-.913,4.284.888,5.168,2.906,2.79,6.366-2.35,13.316-2.881,20.246-.494,6.447,3.1,12.526,7.4,17.358A57.03,57.03,0,0,0,916.29,308.7a7.827,7.827,0,0,1-4.045-2.513,53.1,53.1,0,0,0,13.049-1.094c-4.668-3.518-9.37-7.066-13.267-11.423s-6.984-9.628-7.825-15.413c-1.128-7.764,1.763-16.171-1.543-23.286-3.023-6.5-10.519-10.139-13.256-16.769-2.781-6.734-4.583-12.584-11.945-15.515C869.422,219.484,860.773,217.241,852.091,218.423Z" transform="translate(-327.237 -108.589)" fill="#ea4335"/>
	</svg>