<svg xmlns="http://www.w3.org/2000/svg" width="35.978" height="47.387" viewBox="0 0 35.978 47.387"><defs><style>.a{fill:#fff;}</style></defs><g transform="translate(0 0)"><path class="a" d="M37.233,29.661,24.126,21.492a4.492,4.492,0,0,0,.351-1.753,4.738,4.738,0,1,0-1.384,3.345L36.2,31.253Z" transform="translate(-1.741 -1.73)"/><g transform="translate(0 0)"><path class="a" d="M16.95,1.114A18.006,18.006,0,0,0,7.568,32.9a12.728,12.728,0,0,1,4.8,9.8,1.26,1.26,0,0,0,.066.351l1.9,4.738a.948.948,0,0,0,.881.6H22.8a.948.948,0,0,0,.881-.6l1.9-4.738a1.26,1.26,0,0,0,.066-.351,12.406,12.406,0,0,1,4.654-9.686A18.006,18.006,0,0,0,16.95,1.114Zm5.2,45.376H15.86l-1.137-2.843h8.529Zm1.592-4.738H14.268a14.4,14.4,0,0,0-.493-2.843H24.295a14.272,14.272,0,0,0-.55,2.843Zm5.336-10.216a14.32,14.32,0,0,0-4.141,5.478h-11.9A15.334,15.334,0,0,0,8.772,31.43a16.111,16.111,0,1,1,20.338.1Z" transform="translate(-1.009 -0.998)"/><path class="a" d="M27.111,11H11.948a.948.948,0,0,0-.948.948V27.111a.948.948,0,0,0,.948.948H27.111a.948.948,0,0,0,.948-.948V11.948A.948.948,0,0,0,27.111,11Zm-.948,15.163H12.9V12.9H26.163Z" transform="translate(-1.532 -1.521)"/></g></g></svg>