<svg xmlns="http://www.w3.org/2000/svg" width="51.686" height="29.781" viewBox="0 0 51.686 29.781"><path d="M50.929,122.44a46.453,46.453,0,0,0-7.258-6.94,38.04,38.04,0,0,0-7.916-4.787,24.88,24.88,0,0,0-9.5-2.212c-.137,0-.274-.006-.412-.006s-.275,0-.412.006a24.876,24.876,0,0,0-9.5,2.212A38.032,38.032,0,0,0,8.015,115.5a46.455,46.455,0,0,0-7.257,6.94L0,123.386l.757.946a46.453,46.453,0,0,0,7.258,6.94,38.04,38.04,0,0,0,7.916,4.787,24.881,24.881,0,0,0,9.5,2.212c.137,0,.274.006.412.006s.275,0,.412-.006a24.877,24.877,0,0,0,9.5-2.212,38.033,38.033,0,0,0,7.916-4.787,46.452,46.452,0,0,0,7.258-6.94l.757-.946Zm-37.783,8.717a38.894,38.894,0,0,1-3.223-2.237,46.362,46.362,0,0,1-5.982-5.533,46.36,46.36,0,0,1,5.982-5.533,38.855,38.855,0,0,1,3.223-2.237,14.861,14.861,0,0,0,0,15.541Zm13.06,4.085c-.121,0-.242.006-.363.006s-.242,0-.363-.006a11.861,11.861,0,0,1,0-23.71c.121,0,.242-.006.363-.006s.242,0,.363.006a11.861,11.861,0,0,1,0,23.71Zm15.557-6.322a38.83,38.83,0,0,1-3.223,2.237,14.862,14.862,0,0,0,0-15.541,38.932,38.932,0,0,1,3.223,2.237,46.352,46.352,0,0,1,5.982,5.533A46.354,46.354,0,0,1,41.763,128.919Z" transform="translate(0 -108.496)" fill="#fff"/><path d="M1732.72-408v-4.264h-7.6v-1.421h2.533v-2.665h1.407v2.665h3.659v-8.137h1.407V-408ZM1719-409.172v-1.421h3.835v-8.54h1.407v2.926h2.216v1.421h-2.216v4.193h7.247v1.421Zm.931-3.041V-426h1.407v4.027h7.687v1.421h-2.462v2.772h-1.407v-2.772h-3.818v8.339Zm10.29-2.689v-2.843h-2.392v-1.421h2.392v-4.157h-7.528v-1.421h12.84v1.421h-3.9v8.421Z" transform="translate(-1701.658 431.89)" fill="#fff"/></svg>