<svg xmlns="http://www.w3.org/2000/svg" width="55.792" height="61.501" viewBox="0 0 55.792 61.501"><g transform="translate(0 9.501)"><rect width="52" height="52" fill="none"/><path d="M50.548,47.08,32.891,21.919a2.483,2.483,0,0,0-.544-.561V15.938H53.8a1.494,1.494,0,0,0,1.269-2.283V-4.728A1.494,1.494,0,0,0,55.1-6.243,1.494,1.494,0,0,0,53.8-7.012H32.347V-8.506A1.494,1.494,0,0,0,30.853-10a1.494,1.494,0,0,0-1.494,1.494V21.359a2.485,2.485,0,0,0-.544.561L20.5,33.762l-3.2-4.444a2.49,2.49,0,0,0-4.04,0L.472,47.054A2.49,2.49,0,0,0,2.492,51H48.509a2.49,2.49,0,0,0,2.038-3.921Zm-36.393.932,9.612-13.7,2.463,2.295a1.494,1.494,0,0,0,2.037,0l2.587-2.41,2.587,2.41a1.494,1.494,0,0,0,2.037,0l2.463-2.295,9.611,13.7Zm-3-.932a2.493,2.493,0,0,0-.4.932H3.465L15.28,31.626l3.407,4.725ZM30.853,24.217l5.354,7.629-1.749,1.629-2.587-2.41a1.494,1.494,0,0,0-2.037,0l-2.587,2.41L25.5,31.846ZM52.109-4.023V12.949H32.347V-4.023Z" transform="translate(0.5 0.499)" fill="#fff"/><path d="M1732.72-408v-4.264h-7.6v-1.421h2.533v-2.665h1.407v2.665h3.659v-8.137h1.407V-408ZM1719-409.172v-1.421h3.835v-8.54h1.407v2.926h2.216v1.421h-2.216v4.193h7.247v1.421Zm.931-3.041V-426h1.407v4.027h7.687v1.421h-2.462v2.772h-1.407v-2.772h-3.818v8.339Zm10.29-2.689v-2.843h-2.392v-1.421h2.392v-4.157h-7.528v-1.421h12.84v1.421h-3.9v8.421Z" transform="translate(-1684 422)" fill="#fff"/></g></svg>