<svg xmlns="http://www.w3.org/2000/svg" width="24" height="24" viewBox="0 0 24 24"><defs><style>.a{fill:none;}.b{fill:#4285f4;}</style></defs><g transform="translate(-240.006 -4751.329)"><circle class="a" cx="12" cy="12" r="12" transform="translate(240.006 4751.329)"/><g transform="translate(240.016 4752.331)"><path class="b" d="M10.991,21.989A10.99,10.99,0,1,1,16.919,1.745a.75.75,0,0,1-.81,1.262A9.49,9.49,0,1,0,20.482,11c0-.313-.015-.623-.044-.927a.749.749,0,0,1,1.492-.145q.051.529.051,1.072A11,11,0,0,1,10.991,21.989Zm0,0" transform="translate(0 0)"/><path class="b" d="M154.585,33.836a.744.744,0,0,1-.529-.22l-4.5-4.5a.75.75,0,1,1,1.06-1.06l3.967,3.967,10.46-10.46a.75.75,0,1,1,1.06,1.06l-10.991,10.99A.751.751,0,0,1,154.585,33.836Zm0,0" transform="translate(-142.346 -20.34)"/></g></g></svg>