<svg xmlns="http://www.w3.org/2000/svg" width="51.303" height="45.09" viewBox="0 0 51.303 45.09"><defs><style>.a{fill:#fff;}</style></defs><ellipse class="a" cx="1.5" cy="1" rx="1.5" ry="1" transform="translate(27.021 9.805)"/><ellipse class="a" cx="1.5" cy="1" rx="1.5" ry="1" transform="translate(33.021 9.805)"/><ellipse class="a" cx="1.5" cy="1" rx="1.5" ry="1" transform="translate(39.021 9.805)"/><path class="a" d="M33.789,138.176a4.5,4.5,0,0,0,4.488-4.509v-6.012a1.5,1.5,0,0,0-1.027-1.426l-9-3.006a1.5,1.5,0,0,0-1.31.175l-3.826,2.551a26.572,26.572,0,0,1-10.889-10.791l2.55-3.825a1.5,1.5,0,0,0,.175-1.31l-3.006-9A1.5,1.5,0,0,0,10.521,100H4.509A4.5,4.5,0,0,0,0,104.488c0,8.3,3.776,16.827,10.36,23.384s15.116,10.305,23.429,10.305Zm-29.28-35.17h4.93l2.43,7.272-2.6,3.9a1.5,1.5,0,0,0-.145,1.392,24.863,24.863,0,0,0,5.632,7.913,25.485,25.485,0,0,0,7.952,5.571,1.5,1.5,0,0,0,1.392-.145l3.9-2.6,7.272,2.43v4.93a1.477,1.477,0,0,1-1.482,1.5c-15.823,0-30.783-14.911-30.783-30.683A1.477,1.477,0,0,1,4.509,103.006Z" transform="translate(0 -93.086)"/><path class="a" d="M190.946,57.94a1.5,1.5,0,0,0,1.638-.326l5.572-5.572h5.389a10.522,10.522,0,1,0,0-21.042H191.521a10.522,10.522,0,0,0-1.5,20.935v4.616A1.5,1.5,0,0,0,190.946,57.94Zm-6.94-16.419a7.524,7.524,0,0,1,7.515-7.515h12.024a7.516,7.516,0,1,1,0,15.03h-6.012a1.5,1.5,0,0,0-1.063.44l-3.446,3.446V50.539a1.5,1.5,0,0,0-1.5-1.5A7.524,7.524,0,0,1,184.006,41.521Z" transform="translate(-162.864 -31)"/></svg>