<svg xmlns="http://www.w3.org/2000/svg" width="51.443" height="51.216" viewBox="0 0 51.443 51.216"><defs><style>.a{fill:#fff;}</style></defs><path class="a" d="M105.01,288.259h9v3h-9Z" transform="translate(-94.506 -259.537)"/><path class="a" d="M105.01,348.259h18.006v3H105.01Z" transform="translate(-94.506 -313.536)"/><path class="a" d="M51.443,31.131l-4.5-6a15,15,0,1,0-27.009-9v.229A17.995,17.995,0,0,0,5.254,45.35L0,52.351H19.507A18.018,18.018,0,0,0,37.223,31.131h14.22Zm-28.51-15A12,12,0,1,1,43.915,24.1l-.815.917,2.34,3.118H36.4A18.067,18.067,0,0,0,22.933,16.685v-.552ZM19.507,49.35H6l3.1-4.126-.815-.917A15.006,15.006,0,1,1,19.507,49.35Z" transform="translate(0 -1.135)"/></svg>