<svg xmlns="http://www.w3.org/2000/svg" width="34.55" height="44.979" viewBox="0 0 34.55 44.979"><defs><style>.a{fill:#fff;}</style></defs><path class="a" d="M18.6.331,18.587.321A1.056,1.056,0,0,0,17.816,0a.352.352,0,0,0-.107.011H1.264A5.355,5.355,0,0,0-4.089,5.364V39.625a5.355,5.355,0,0,0,5.353,5.353H25.108a5.355,5.355,0,0,0,5.353-5.353v-27a1.1,1.1,0,0,0-.311-.76Zm.289,3.319,7.944,7.923H22.1a3.222,3.222,0,0,1-3.212-3.212Zm6.231,39.175H1.264a3.222,3.222,0,0,1-3.212-3.212V5.353A3.222,3.222,0,0,1,1.264,2.141H16.746V8.362A5.356,5.356,0,0,0,22.1,13.715H28.32v25.9a3.206,3.206,0,0,1-3.2,3.212Zm0,0" transform="translate(4.089 0.001)"/><path class="a" d="M64.59,218.344H76.164a1.071,1.071,0,1,0,0-2.141H64.59a1.071,1.071,0,0,0,0,2.141Zm0,0" transform="translate(-57.727 -197.68)"/><path class="a" d="M85.426,310.68H64.59a1.071,1.071,0,0,0,0,2.141H85.426a1.071,1.071,0,1,0,0-2.141Zm0,0" transform="translate(-57.728 -284.063)"/><path class="a" d="M85.426,405.281H64.59a1.071,1.071,0,1,0,0,2.141H85.426a1.071,1.071,0,1,0,0-2.141Zm0,0" transform="translate(-57.728 -370.559)"/></svg>