<svg xmlns="http://www.w3.org/2000/svg" xmlns:xlink="http://www.w3.org/1999/xlink" width="726" height="400.925" viewBox="0 0 726 400.925"><defs><linearGradient id="a" x1="0.5" y1="1" x2="0.5" gradientUnits="objectBoundingBox"><stop offset="0" stop-color="gray" stop-opacity="0.251"/><stop offset="0.54" stop-color="gray" stop-opacity="0.122"/><stop offset="1" stop-color="gray" stop-opacity="0.102"/></linearGradient><linearGradient id="b" x1="0.5" y1="1" x2="0.5" y2="-0.001" xlink:href="#a"/></defs><g transform="translate(-240 -543.207)"><ellipse cx="362.765" cy="200.463" rx="362.765" ry="200.463" transform="translate(240.47 543.207)" fill="none"/><g transform="translate(240 561.74)"><g transform="translate(4.834 0)"><g transform="translate(276.832 26.457)" opacity="0.1"><ellipse cx="7.527" cy="9.855" rx="7.527" ry="9.855" transform="translate(28.369 203.438)" fill="#34a853"/><path d="M533.513,452.871a11.907,11.907,0,0,0,1.574-6.026c0-5.443-3.373-9.855-7.534-9.855S520,441.415,520,446.858a11.906,11.906,0,0,0,1.574,6.026,12.309,12.309,0,0,0,0,12.044,12.309,12.309,0,0,0,0,12.044A11.864,11.864,0,0,0,520,483c0,5.437,3.373,9.855,7.527,9.855s7.534-4.418,7.534-9.855a11.868,11.868,0,0,0-1.574-6.026,12.309,12.309,0,0,0,0-12.044,12.31,12.31,0,0,0,0-12.045Z" transform="translate(-491.657 -281.743)" fill="#34a853"/><ellipse cx="7.527" cy="9.855" rx="7.527" ry="9.855" transform="translate(28.369 143.216)" fill="#34a853"/><ellipse cx="7.527" cy="9.855" rx="7.527" ry="9.855" transform="translate(28.369 131.172)" fill="#34a853"/><path d="M484.868,260.865a35.1,35.1,0,0,1-2.8-4.127l19.776-3.248-21.39.159a36.127,36.127,0,0,1-.661-28.573l28.7,14.889-26.457-19.459a36.067,36.067,0,1,1,59.528,40.346,36.076,36.076,0,0,1,4.114,6.575L519.99,280.8l27.376-9.187a36.067,36.067,0,0,1-5.814,33.865,36.061,36.061,0,1,1-56.683,0,36.06,36.06,0,0,1,0-44.593Z" transform="translate(-477.149 -202.271)" fill="#34a853"/><path d="M549.271,324.3a35.9,35.9,0,0,1-7.719,22.3,36.06,36.06,0,1,1-56.684,0C480.034,340.456,549.271,320.25,549.271,324.3Z" transform="translate(-477.149 -243.407)" fill="#34a853" opacity="0.1"/></g><g transform="translate(373.922 59.416)" opacity="0.1"><ellipse cx="5.629" cy="7.362" rx="5.629" ry="7.362" transform="translate(21.198 151.899)" fill="#34a853"/><path d="M665.84,439.186a8.883,8.883,0,0,0,1.171-4.5c0-4.068-2.52-7.368-5.622-7.368s-5.629,3.307-5.629,7.368a8.819,8.819,0,0,0,1.177,4.5,9.194,9.194,0,0,0,0,9,9.2,9.2,0,0,0,0,9,8.818,8.818,0,0,0-1.177,4.5c0,4.068,2.52,7.368,5.629,7.368s5.622-3.307,5.622-7.368a8.883,8.883,0,0,0-1.171-4.5,9.26,9.26,0,0,0,0-9A9.26,9.26,0,0,0,665.84,439.186Z" transform="translate(-634.568 -311.428)" fill="#34a853"/><ellipse cx="5.629" cy="7.362" rx="5.629" ry="7.362" transform="translate(21.198 106.896)" fill="#34a853"/><ellipse cx="5.629" cy="7.362" rx="5.629" ry="7.362" transform="translate(21.198 97.894)" fill="#34a853"/><path d="M629.488,295.761a25.79,25.79,0,0,1-2.1-3.082l14.783-2.427-15.986.119a27.012,27.012,0,0,1-.516-21.357l21.45,11.132-19.783-14.551a26.953,26.953,0,1,1,44.507,30.161,27.253,27.253,0,0,1,3.076,4.914l-19.181,9.968,20.458-6.866a26.959,26.959,0,0,1-4.346,25.306,26.946,26.946,0,1,1-42.331,0,26.946,26.946,0,0,1,0-33.322Z" transform="translate(-623.72 -252.103)" fill="#34a853"/><path d="M677.619,343.1a26.834,26.834,0,0,1-5.768,16.661,26.946,26.946,0,1,1-42.331,0C625.9,355.174,677.619,340.074,677.619,343.1Z" transform="translate(-623.727 -282.778)" fill="#34a853" opacity="0.1"/></g><g transform="translate(646.783)" opacity="0.1"><ellipse cx="7.527" cy="9.855" rx="7.527" ry="9.855" transform="translate(28.877 203.438)" fill="#34a853"/><path d="M1080.764,412.871a11.906,11.906,0,0,1-1.574-6.026c0-5.443,3.373-9.855,7.533-9.855s7.527,4.412,7.527,9.855a11.9,11.9,0,0,1-1.574,6.025,12.308,12.308,0,0,1,0,12.044,12.308,12.308,0,0,1,0,12.044,11.864,11.864,0,0,1,1.574,6.026c0,5.437-3.373,9.855-7.527,9.855s-7.533-4.418-7.533-9.855a11.867,11.867,0,0,1,1.574-6.025,12.309,12.309,0,0,1,0-12.044A12.309,12.309,0,0,1,1080.764,412.871Z" transform="translate(-1050.32 -241.743)" fill="#34a853"/><ellipse cx="7.527" cy="9.855" rx="7.527" ry="9.855" transform="translate(28.877 143.216)" fill="#34a853"/><ellipse cx="7.527" cy="9.855" rx="7.527" ry="9.855" transform="translate(28.877 131.172)" fill="#34a853"/><path d="M1100.121,220.865a35.074,35.074,0,0,0,2.8-4.127l-19.776-3.248,21.39.159a36.128,36.128,0,0,0,.661-28.573l-28.7,14.889,26.457-19.459a36.067,36.067,0,1,0-59.527,40.347,36.071,36.071,0,0,0-4.114,6.574L1065,240.8l-27.376-9.187a36.067,36.067,0,0,0,5.814,33.865,36.06,36.06,0,1,0,56.683,0,36.06,36.06,0,0,0,0-44.593Z" transform="translate(-1035.541 -162.271)" fill="#34a853"/><path d="M1035.81,284.3a35.893,35.893,0,0,0,7.719,22.3,36.061,36.061,0,1,0,56.684,0C1105.047,300.456,1035.81,280.25,1035.81,284.3Z" transform="translate(-1035.632 -203.407)" fill="#34a853" opacity="0.1"/></g><g transform="translate(583.43 55.448)" opacity="0.1"><ellipse cx="5.629" cy="7.362" rx="5.629" ry="7.362" transform="translate(21.465 151.899)" fill="#34a853"/><path d="M973.4,433.186a8.882,8.882,0,0,1-1.171-4.5c0-4.068,2.52-7.368,5.622-7.368s5.629,3.307,5.629,7.368a8.818,8.818,0,0,1-1.177,4.5,9.192,9.192,0,0,1,0,9,9.193,9.193,0,0,1,0,9,8.818,8.818,0,0,1,1.177,4.5c0,4.068-2.52,7.368-5.629,7.368s-5.622-3.307-5.622-7.368a8.882,8.882,0,0,1,1.171-4.5,9.26,9.26,0,0,1,0-9,9.26,9.26,0,0,1,0-9Z" transform="translate(-950.751 -305.428)" fill="#34a853"/><ellipse cx="5.629" cy="7.362" rx="5.629" ry="7.362" transform="translate(21.465 106.896)" fill="#34a853"/><ellipse cx="5.629" cy="7.362" rx="5.629" ry="7.362" transform="translate(21.465 97.894)" fill="#34a853"/><path d="M987.91,289.761a25.847,25.847,0,0,0,2.1-3.082l-14.783-2.427,15.986.119a27.011,27.011,0,0,0,.516-21.357l-21.45,11.132,19.783-14.551a26.953,26.953,0,1,0-44.507,30.161,27.25,27.25,0,0,0-3.076,4.914l19.181,9.968-20.418-6.859a26.959,26.959,0,0,0,4.346,25.306,26.946,26.946,0,1,0,42.331,0,26.947,26.947,0,0,0,0-33.322Z" transform="translate(-939.756 -246.103)" fill="#34a853"/><path d="M939.793,337.1a26.835,26.835,0,0,0,5.768,16.661,26.946,26.946,0,1,0,42.331,0C991.516,349.174,939.793,334.074,939.793,337.1Z" transform="translate(-939.764 -276.778)" fill="#34a853" opacity="0.1"/></g><g transform="translate(0 0.111)" opacity="0.1"><ellipse cx="7.527" cy="9.855" rx="7.527" ry="9.855" transform="translate(28.375 203.327)" fill="#34a853"/><path d="M115.689,412.871a11.906,11.906,0,0,0,1.574-6.026c0-5.444-3.373-9.855-7.527-9.855s-7.527,4.412-7.527,9.855a11.906,11.906,0,0,0,1.568,6.026,12.348,12.348,0,0,0,0,12.044,12.349,12.349,0,0,0,0,12.045,11.859,11.859,0,0,0-1.568,6.025c0,5.437,3.367,9.855,7.527,9.855s7.547-4.405,7.547-9.842a11.866,11.866,0,0,0-1.574-6.026,12.309,12.309,0,0,0,0-12.044,12.309,12.309,0,0,0,0-12.044Z" transform="translate(-73.834 -241.853)" fill="#34a853"/><ellipse cx="7.527" cy="9.855" rx="7.527" ry="9.855" transform="translate(28.375 143.105)" fill="#34a853"/><ellipse cx="7.527" cy="9.855" rx="7.527" ry="9.855" transform="translate(28.375 131.061)" fill="#34a853"/><path d="M67.042,220.922a35.928,35.928,0,0,1-2.8-4.127l19.783-3.248-21.41.192a36.127,36.127,0,0,1-.661-28.573l28.706,14.888L64.2,180.6a36.061,36.061,0,1,1,59.528,40.346,36.071,36.071,0,0,1,4.114,6.575L102.15,240.857l27.383-9.187a36.107,36.107,0,0,1-5.82,33.865,36.06,36.06,0,1,1-56.683,0,36.061,36.061,0,0,1,0-44.593Z" transform="translate(-59.309 -162.439)" fill="#34a853"/><path d="M131.431,284.3a35.9,35.9,0,0,1-7.719,22.3,36.061,36.061,0,1,1-56.684,0C62.193,300.456,131.431,280.25,131.431,284.3Z" transform="translate(-59.309 -203.518)" fill="#34a853" opacity="0.1"/></g><g transform="translate(81.732 55.448)" opacity="0.1"><ellipse cx="5.629" cy="7.362" rx="5.629" ry="7.362" transform="translate(21.198 151.899)" fill="#34a853"/><path d="M225.01,433.186a8.882,8.882,0,0,0,1.171-4.5c0-4.068-2.513-7.368-5.622-7.368s-5.629,3.307-5.629,7.368a8.883,8.883,0,0,0,1.177,4.5,9.194,9.194,0,0,0,0,9,9.194,9.194,0,0,0,0,9,8.883,8.883,0,0,0-1.177,4.5c0,4.068,2.52,7.368,5.629,7.368s5.622-3.307,5.622-7.368a8.883,8.883,0,0,0-1.171-4.5,9.26,9.26,0,0,0,0-9,9.26,9.26,0,0,0,0-9Z" transform="translate(-193.732 -305.428)" fill="#34a853"/><ellipse cx="5.629" cy="7.362" rx="5.629" ry="7.362" transform="translate(21.198 106.896)" fill="#34a853"/><ellipse cx="5.629" cy="7.362" rx="5.629" ry="7.362" transform="translate(21.198 97.895)" fill="#34a853"/><path d="M188.648,289.761a26.594,26.594,0,0,1-2.1-3.082l14.783-2.427-15.987.119a27.013,27.013,0,0,1-.516-21.357l21.45,11.132L186.5,259.594A26.953,26.953,0,1,1,231,289.755a26.538,26.538,0,0,1,3.076,4.914L214.9,304.636l20.458-6.866a26.959,26.959,0,0,1-4.345,25.306,26.946,26.946,0,1,1-42.331,0,26.946,26.946,0,0,1,0-33.322Z" transform="translate(-182.88 -246.103)" fill="#34a853"/><path d="M236.779,337.1a26.834,26.834,0,0,1-5.768,16.661,26.946,26.946,0,1,1-42.331,0C185.043,349.174,236.779,334.074,236.779,337.1Z" transform="translate(-182.887 -276.778)" fill="#34a853" opacity="0.1"/></g></g><ellipse cx="363" cy="5.86" rx="363" ry="5.86" transform="translate(0 320.832)" fill="#4285f4" opacity="0.1"/><ellipse cx="363" cy="5.86" rx="363" ry="5.86" transform="translate(0 368.951)" fill="#4285f4" opacity="0.1"/><ellipse cx="363" cy="5.86" rx="363" ry="5.86" transform="translate(0 220.303)" fill="#4285f4" opacity="0.1"/><ellipse cx="363" cy="5.86" rx="363" ry="5.86" transform="translate(0 270.547)" fill="#4285f4" opacity="0.1"/><path d="M842.226,264.752a12.1,12.1,0,0,0-7.011.767,10.35,10.35,0,0,1-8.426,0,11.826,11.826,0,0,0-9.921.192,6.112,6.112,0,0,1-2.851.714c-4.021,0-7.362-4.048-8.056-9.385a7.858,7.858,0,0,0,1.984-2.163c2.355-3.8,6-6.237,10.1-6.237s7.7,2.408,10.054,6.164a7.725,7.725,0,0,0,6.674,3.664h.106C838.112,258.436,840.883,261,842.226,264.752Z" transform="translate(-306.491 -191.398)" fill="#4285f4" opacity="0.1"/><path d="M854.462,240.34l-6.5,4.114,3.969-7.17a6.417,6.417,0,0,0-3.929-1.4H847.9a7.5,7.5,0,0,1-1.323-.1l-2.236,1.4.946-1.72a7.8,7.8,0,0,1-3.856-2.923l-3.968,2.5,2.487-4.524a11.526,11.526,0,0,0-8.823-4.458c-4.1,0-7.745,2.434-10.106,6.231a7.547,7.547,0,0,1-6.674,3.6h-.218c-4.524,0-8.188,5.126-8.188,11.449s3.664,11.456,8.188,11.456a6.211,6.211,0,0,0,2.851-.714,11.812,11.812,0,0,1,9.921-.2,10.285,10.285,0,0,0,8.427,0,11.853,11.853,0,0,1,9.829.192,6.151,6.151,0,0,0,2.818.7c4.524,0,8.188-5.133,8.188-11.456A14.506,14.506,0,0,0,854.462,240.34Z" transform="translate(-306.468 -183.869)" fill="#4285f4" opacity="0.1"/><path d="M430.272,261.817a8.493,8.493,0,0,0-4.914.536,7.223,7.223,0,0,1-5.893,0,8.254,8.254,0,0,0-6.938.139,4.38,4.38,0,0,1-1.984.5c-2.811,0-5.152-2.831-5.642-6.568a5.5,5.5,0,0,0,1.409-1.515,7.9,7.9,0,0,1,14.108-.053,5.417,5.417,0,0,0,4.676,2.566h.073C427.388,257.406,429.326,259.2,430.272,261.817Z" transform="translate(-171.123 -192.041)" fill="#4285f4" opacity="0.1"/><path d="M438.831,244.741l-4.544,2.884,2.758-5.02a4.465,4.465,0,0,0-2.745-.979h-.079a4.955,4.955,0,0,1-.939-.073l-1.541.979.661-1.2a5.49,5.49,0,0,1-2.7-2.044l-2.758,1.746,1.746-3.162a8.076,8.076,0,0,0-6.178-3.129,8.46,8.46,0,0,0-7.071,4.365,5.291,5.291,0,0,1-4.676,2.52h-.152c-3.168,0-5.734,3.585-5.734,8.016s2.566,8.016,5.734,8.016a4.3,4.3,0,0,0,1.984-.5,8.268,8.268,0,0,1,6.932-.132,7.1,7.1,0,0,0,5.9.04,8.294,8.294,0,0,1,6.879.132,4.286,4.286,0,0,0,1.984.489c3.162,0,5.728-3.591,5.728-8.016A10.139,10.139,0,0,0,438.831,244.741Z" transform="translate(-171.111 -186.705)" fill="#4285f4" opacity="0.1"/><path d="M321.59,340.227a8.48,8.48,0,0,1,4.908.536,7.236,7.236,0,0,0,5.9,0,8.281,8.281,0,0,1,6.938.132,4.279,4.279,0,0,0,1.984.5c2.811,0,5.152-2.837,5.635-6.574a5.393,5.393,0,0,1-1.4-1.515,7.912,7.912,0,0,0-14.115-.046,5.417,5.417,0,0,1-4.67,2.566H326.7C324.467,335.842,322.523,337.634,321.59,340.227Z" transform="translate(-143.002 -218.6)" fill="#4285f4" opacity="0.1"/><path d="M308.03,323.184l4.551,2.884-2.765-5.014a4.491,4.491,0,0,1,2.751-.986h.073a5.636,5.636,0,0,0,.946-.066l1.541.972-.661-1.2a5.483,5.483,0,0,0,2.692-2.044l2.758,1.746-1.72-3.168a8.069,8.069,0,0,1,6.178-3.122,8.469,8.469,0,0,1,7.071,4.365,5.291,5.291,0,0,0,4.67,2.52h.159c3.162,0,5.728,3.592,5.728,8.016s-2.566,8.016-5.728,8.016a4.294,4.294,0,0,1-1.984-.5,8.255,8.255,0,0,0-6.938-.139,7.183,7.183,0,0,1-2.963.661,7.275,7.275,0,0,1-2.937-.622,8.281,8.281,0,0,0-6.872.132,4.285,4.285,0,0,1-1.984.489c-3.168,0-5.735-3.585-5.735-8.016A10.213,10.213,0,0,1,308.03,323.184Z" transform="translate(-138.025 -213.269)" fill="#4285f4" opacity="0.1"/><path d="M712.511,616.838c1.726-3.2-.232-7.117-2.48-9.968s-5-5.82-4.941-9.452c.086-5.219,5.629-8.307,10.054-11.072a49.148,49.148,0,0,0,9.028-7.276,13.317,13.317,0,0,0,2.771-3.717,15.033,15.033,0,0,0,.833-6.614q-.284-11.171-1.1-22.329" transform="translate(-272.456 -292.043)" fill="none" stroke="#3f3d56" stroke-miterlimit="10" stroke-width="4"/><path d="M742.118,541.874a8.142,8.142,0,0,0-4.068-6.674l-1.825,3.6.06-4.365a8.142,8.142,0,1,0,5.834,7.434Z" transform="translate(-279.468 -287.964)" fill="#4285f4"/><path d="M720.615,623.131a8.142,8.142,0,0,1-15.371-3.307,7.935,7.935,0,0,1,.529-3.307,8.149,8.149,0,0,1,15.213.086l-5.086,4.141,5.6-1.323A8.094,8.094,0,0,1,720.615,623.131Z" transform="translate(-272.511 -314.074)" fill="#4285f4"/><path d="M718.045,596.936a8.142,8.142,0,0,1-2.58-15.973l-.046,3.353,1.845-3.651h0a8.144,8.144,0,1,1,.761,16.271Z" transform="translate(-273.958 -303.702)" fill="#4285f4"/><path d="M747.917,577.05a8.142,8.142,0,1,1,3.6-15.212l-1.435,3.968,2.93-2.9a8.142,8.142,0,0,1-5.119,14.135Z" transform="translate(-284.029 -296.98)" fill="#4285f4"/><path d="M741.014,546.33c-1.878.205-3.7.787-5.6.906a6.054,6.054,0,0,1-5.146-1.8,26.116,26.116,0,0,1-1.508-2.646,5.8,5.8,0,0,0-2.05-1.931,8.142,8.142,0,1,0,15.213,5.41C741.629,546.277,741.318,546.3,741.014,546.33Z" transform="translate(-279.462 -290.249)" opacity="0.1"/><path d="M747.935,579.434a8.142,8.142,0,0,1-7.745-11.615,6.026,6.026,0,0,1,1.634,1.64,27.6,27.6,0,0,0,1.614,2.692,6.642,6.642,0,0,0,5.4,1.885c1.964-.1,3.863-.661,5.82-.827.271,0,.542-.04.82-.046A8.142,8.142,0,0,1,747.935,579.434Z" transform="translate(-284.047 -299.364)" opacity="0.1"/><path d="M718.047,599.4a8.142,8.142,0,0,1-7.811-11.462,6.611,6.611,0,0,1,1.726,1.654,27.292,27.292,0,0,0,1.766,2.745,7.374,7.374,0,0,0,5.761,1.984c2.077-.086,3.968-.536,5.953-.661A8.155,8.155,0,0,1,718.047,599.4Z" transform="translate(-273.96 -306.167)" opacity="0.1"/><path d="M720.615,625.784a8.142,8.142,0,0,1-15.371-3.307,7.934,7.934,0,0,1,.529-3.307,8.127,8.127,0,0,1,1.786,1.594c.774.939,1.283,1.984,2.183,2.89,1.66,1.634,4.352,2.308,6.74,2.368a34.223,34.223,0,0,0,4.134-.238Z" transform="translate(-272.511 -316.623)" opacity="0.1"/><path d="M102.511,544.838c1.726-3.2-.231-7.117-2.48-9.968s-5-5.834-4.941-9.452c.086-5.219,5.629-8.307,10.054-11.072a49.15,49.15,0,0,0,9.028-7.276,13.318,13.318,0,0,0,2.771-3.717,15.034,15.034,0,0,0,.833-6.614q-.291-11.171-1.1-22.33" transform="translate(-66.589 -267.752)" fill="none" stroke="#3f3d56" stroke-miterlimit="10" stroke-width="4"/><path d="M132.119,469.874a8.142,8.142,0,0,0-4.068-6.674l-1.825,3.6.06-4.365a8.142,8.142,0,1,0,5.834,7.434Z" transform="translate(-73.616 -263.62)" fill="#4285f4"/><path d="M110.615,551.131a8.142,8.142,0,0,1-15.371-3.307,7.937,7.937,0,0,1,.529-3.307,8.149,8.149,0,0,1,15.213.086l-5.086,4.141,5.6-1.323a8.1,8.1,0,0,1-.88,3.711Z" transform="translate(-66.638 -289.731)" fill="#4285f4"/><path d="M108.046,524.936a8.142,8.142,0,0,1-2.58-15.973l-.046,3.353,1.845-3.651h0a8.144,8.144,0,0,1,.761,16.271Z" transform="translate(-68.089 -279.359)" fill="#4285f4"/><path d="M137.917,505.05a8.142,8.142,0,1,1,3.6-15.213l-1.435,3.969,2.93-2.9a8.142,8.142,0,0,1-5.119,14.135Z" transform="translate(-78.191 -272.637)" fill="#4285f4"/><path d="M131.014,474.33c-1.878.2-3.7.787-5.6.906a6.054,6.054,0,0,1-5.146-1.8,26.107,26.107,0,0,1-1.508-2.646,5.793,5.793,0,0,0-2.05-1.931,8.142,8.142,0,1,0,15.213,5.41C131.629,474.277,131.318,474.3,131.014,474.33Z" transform="translate(-73.61 -265.905)" opacity="0.1"/><path d="M137.935,507.434a8.142,8.142,0,0,1-7.745-11.614,6.025,6.025,0,0,1,1.634,1.64,27.589,27.589,0,0,0,1.614,2.692,6.642,6.642,0,0,0,5.4,1.885c1.964-.1,3.863-.661,5.82-.827.271,0,.542-.04.82-.046A8.142,8.142,0,0,1,137.935,507.434Z" transform="translate(-78.209 -275.021)" opacity="0.1"/><path d="M108.047,527.4a8.142,8.142,0,0,1-7.811-11.462,6.614,6.614,0,0,1,1.726,1.654,27.283,27.283,0,0,0,1.766,2.745,7.374,7.374,0,0,0,5.761,1.984c2.077-.086,3.968-.536,5.953-.661A8.155,8.155,0,0,1,108.047,527.4Z" transform="translate(-68.091 -281.824)" opacity="0.1"/><path d="M110.615,553.784a8.142,8.142,0,0,1-15.371-3.307,7.936,7.936,0,0,1,.529-3.307,8.127,8.127,0,0,1,1.786,1.594c.774.939,1.283,1.984,2.183,2.89,1.66,1.634,4.352,2.308,6.74,2.368a34.187,34.187,0,0,0,4.134-.238Z" transform="translate(-66.638 -292.383)" opacity="0.1"/><path d="M504.695,462.475c-1.726-3.195.232-7.11,2.487-9.961s4.994-5.82,4.934-9.452c-.079-5.225-5.622-8.307-10.053-11.072a48.942,48.942,0,0,1-9.022-7.276A13.081,13.081,0,0,1,490.262,421a15.245,15.245,0,0,1-.833-6.614q.3-11.171,1.1-22.33" transform="translate(-199.651 -239.916)" fill="none" stroke="#3f3d56" stroke-miterlimit="10" stroke-width="4"/><path d="M478.385,387.515a8.135,8.135,0,0,1,4.061-6.674l1.826,3.6-.053-4.365a8.347,8.347,0,0,1,2.679-.324,8.142,8.142,0,1,1-8.512,7.758Z" transform="translate(-195.931 -235.775)" fill="#4285f4"/><path d="M499.88,468.737a8.142,8.142,0,1,0-.39-6.555l5.086,4.14L498.98,465A8.1,8.1,0,0,0,499.88,468.737Z" transform="translate(-202.886 -261.851)" fill="#4285f4"/><path d="M502.447,442.576a8.142,8.142,0,0,0,2.586-15.973l.04,3.353-1.845-3.651h0a8.142,8.142,0,0,0-8.532,7.732,8.043,8.043,0,0,0,.351,2.778A8.136,8.136,0,0,0,502.447,442.576Z" transform="translate(-201.437 -251.512)" fill="#4285f4"/><path d="M472.556,422.669a8.142,8.142,0,1,0-3.6-15.213l1.442,3.969-2.963-2.838a8.076,8.076,0,0,0-2.646,5.622,7.878,7.878,0,0,0,.205,2.242A8.135,8.135,0,0,0,472.556,422.669Z" transform="translate(-191.339 -244.784)" fill="#4285f4"/><path d="M479.583,391.97c1.878.205,3.7.787,5.589.906a6.082,6.082,0,0,0,5.152-1.8,26.068,26.068,0,0,0,1.5-2.646,5.813,5.813,0,0,1,2.057-1.931,8.142,8.142,0,1,1-15.213,5.4C478.968,391.91,479.272,391.937,479.583,391.97Z" transform="translate(-196.03 -238.059)" opacity="0.1"/><path d="M472.677,425.054a8.149,8.149,0,0,0,7.745-11.614,6.053,6.053,0,0,0-1.64,1.64,27.6,27.6,0,0,1-1.614,2.692,6.621,6.621,0,0,1-5.4,1.885c-1.964-.1-3.863-.661-5.82-.827-.271,0-.549-.04-.82-.046A8.136,8.136,0,0,0,472.677,425.054Z" transform="translate(-191.46 -247.167)" opacity="0.1"/><path d="M502.635,445.042a8.135,8.135,0,0,0,7.811-11.462,6.5,6.5,0,0,0-1.72,1.654,27.267,27.267,0,0,1-1.766,2.745,7.388,7.388,0,0,1-5.768,1.984c-2.083-.086-3.969-.536-5.953-.661A8.136,8.136,0,0,0,502.635,445.042Z" transform="translate(-201.624 -253.977)" opacity="0.1"/><path d="M500.34,471.424a8.142,8.142,0,0,0,14.849-6.614A7.822,7.822,0,0,0,513.4,466.4c-.774.939-1.323,1.984-2.183,2.89-1.667,1.634-4.352,2.308-6.746,2.368A35.725,35.725,0,0,1,500.34,471.424Z" transform="translate(-203.346 -264.536)" opacity="0.1"/><g transform="translate(435.207 60.122)"><ellipse cx="66.421" cy="66.421" rx="66.421" ry="66.421" transform="translate(0.06)" fill="#f6f7fb"/><path d="M832.017,392.219a39.245,39.245,0,0,0-8.292-5.54c-2.482-1.192-3.394-1.171-5.151.1-1.461,1.036-2.41,2.037-4.089,1.669s-5.006-2.876-8.224-6.084-5.716-6.514-6.074-8.219.627-2.633,1.674-4.094c1.264-1.757,1.3-2.669.1-5.151a39.741,39.741,0,0,0-5.545-8.292c-1.819-1.814-2.213-1.415-3.208-1.036a18.552,18.552,0,0,0-2.938,1.555,8.866,8.866,0,0,0-3.524,3.726c-.71,1.513-1.513,4.322,2.617,11.676A65.135,65.135,0,0,0,800.815,387.8h0a65.231,65.231,0,0,0,15.324,11.474c7.348,4.146,10.162,3.322,11.676,2.617a8.7,8.7,0,0,0,3.721-3.524,18.3,18.3,0,0,0,1.555-2.938C833.432,394.432,833.836,394.028,832.017,392.219Z" transform="translate(-743.301 -312.449)" fill="#4285f4"/><path d="M798.16,300.86a66.447,66.447,0,1,0,66.414,66.425A66.447,66.447,0,0,0,798.16,300.86Zm0,124a57.59,57.59,0,1,1,57.59-57.59A57.59,57.59,0,0,1,798.16,424.864Z" transform="translate(-731.68 -300.853)" opacity="0.1"/></g><g transform="translate(297.369 187.903)"><ellipse cx="66.004" cy="66.421" rx="66.004" ry="66.421" transform="translate(0.893)" fill="#f6f7fb"/><path d="M4.176,37.791A4.2,4.2,0,0,1,0,33.591V4.8a.256.256,0,0,1,.159-.242.256.256,0,0,1,.281.056L14.505,19a.285.285,0,0,1,0,.369L4.675,29.9a1.7,1.7,0,1,0,2.4,2.414l9.793-10.49a.265.265,0,0,1,.376,0l2.3,2.362a10.713,10.713,0,0,0,7.65,3.272,10.484,10.484,0,0,0,7.518-3.181L37.1,21.848a.267.267,0,0,1,.377,0l9.815,10.515a1.7,1.7,0,0,0,2.4-2.415L39.827,19.394a.255.255,0,0,1-.078-.183.263.263,0,0,1,.078-.185L53.89,4.636a.259.259,0,0,1,.452.184V33.591a4.2,4.2,0,0,1-4.177,4.2Zm23-13.751a7.073,7.073,0,0,1-5.089-2.127L1.6.945A4.044,4.044,0,0,1,4.186,0H50.207a4.071,4.071,0,0,1,2.584.945L32.308,21.913a7.092,7.092,0,0,1-5.062,2.127Z" transform="translate(39.715 47.598)" fill="#ea4335"/><path d="M566.833,452.69c-36.476-.018-66.057,29.73-66.063,66.436s29.576,66.47,66.052,66.458c36.454,0,66.021-29.763,66.008-66.469C632.819,482.439,603.279,452.708,566.833,452.69Zm0,124a57.591,57.591,0,1,1,57.229-57.59A57.41,57.41,0,0,1,566.833,576.694Z" transform="translate(-500.77 -452.683)" opacity="0.1"/></g><g transform="translate(113.918 85.233)"><ellipse cx="66.421" cy="66.424" rx="66.421" ry="66.424" transform="translate(0.059 0.02)" fill="#f6f7fb"/><path d="M345.508,430.16,325,477.475l1.914,1.914,18.6-8.2,18.6,8.2,1.914-1.914Z" transform="translate(-279.026 -388.326)" fill="#34a853"/><path d="M331.28,378a66.408,66.408,0,1,0,.011,0Zm0,124.01a47.478,47.478,0,1,1,.007.027Z" transform="translate(-264.8 -378)" opacity="0.1"/></g><path d="M824.768,589.179q-.9-2.2-1.845-4.379a13,13,0,0,0-2.255-3.9,4.13,4.13,0,0,0-1.323-.992,5.641,5.641,0,0,0-1.726-.344,13.783,13.783,0,0,0-2.712-.073c-.35-.106-.747-.245-1.137-.4a9.445,9.445,0,0,0,7.038-8.764c0-.132,0-.271,0-.4a9.425,9.425,0,0,0-9.385-9.465,9.26,9.26,0,0,0-4.928,1.409,8.843,8.843,0,0,0-9.921,4.782,10.933,10.933,0,0,0-3.373,8.135c0,.139,0,.284,0,.417.172,5.139,3.492,9.26,7.686,9.677a4.409,4.409,0,0,0-1.217.813c-1.283,1.237-1.495,3.2-1.634,4.987l-.1,1.323-2.222.794a.41.41,0,0,0-.1.721l2.123,1.515v.377a1.657,1.657,0,0,0,.04.43,3.034,3.034,0,0,0-.82,1.171,5.405,5.405,0,0,0-.192,2.143l.079,1.845a14.5,14.5,0,0,0,.562,4.107c.278.82,1.482,2.8,2.348,2.811a85.558,85.558,0,0,0-1.012,11.31c-.1.1.179.192.661.271.476,3.651,2.031,13.89,4.789,18.394a38.768,38.768,0,0,1,1.038,4.471s.787,9.729,1.826,12.62c.886,2.461,1.587,8.532,1.779,10.292a1.012,1.012,0,0,0-.734.754c-.523,1.574-3.909,3.968-3.909,3.968a16.372,16.372,0,0,0-2.923,1.872c-1.065.959-1.025,1.826,3.7,1.283,9.128-1.052,10.688-3.968,10.688-3.968s-.146-.489-.364-1.125a12.209,12.209,0,0,0-1.2-2.824c-.132-.126-.265.086-.423.417a56.621,56.621,0,0,1-.622-12.772,20.724,20.724,0,0,0-1.045-7.626,14.441,14.441,0,0,1,0-4.994c.523-2.1-2.083-12.362-2.083-12.362l-1.495-7.553a2.169,2.169,0,0,1,.417.88l.04.152.04.218a.411.411,0,0,0,.106.205c1.019,4.233,3.81,15.96,3.81,17.68,0,2.1,2.606,7.362,2.606,7.362s1.038,8.678,2.864,12.091c1.389,2.6,1.422,6.409,1.356,8.089h0a7.493,7.493,0,0,1-.834,2.685,6.391,6.391,0,0,0-.986,1.713l-.06.126s-.78,1.581-.258,1.845a12.811,12.811,0,0,0,6.257.787s1.045-1.323,1.045-1.839a8.3,8.3,0,0,0-.119-.939c-.192-1.243-.549-3.2-.555-3.221.218-.847-.661-3.2-.661-3.2l-.265-7.362a33.98,33.98,0,0,0-1.825-14.73s-1.323-4.729-1.038-6.045-.523-15.252-.523-15.252l-.079-.2a15.063,15.063,0,0,1,.079-2.956,39.269,39.269,0,0,0-1.045-9.987,8.657,8.657,0,0,1-.37-2.176c.059-.549.238-2.156.483-4.154a74.659,74.659,0,0,0,7.686-.662.959.959,0,0,0,.661-.265.927.927,0,0,0,.152-.536C827.718,596.692,826.27,592.843,824.768,589.179Zm-5.245,8.341c.271-1.885.562-3.711.853-5.066l.04.119a36.814,36.814,0,0,1,1.257,4.167A14.169,14.169,0,0,1,819.523,597.519Z" transform="translate(-302.185 -296.801)" fill="url(#a)"/><path d="M802.37,648.416s1.561,14.042,4.941,19.5a37.813,37.813,0,0,1,1.038,4.418s.781,9.617,1.819,12.474,1.819,10.662,1.819,10.662,3.638,4.154,4.941.78a54.776,54.776,0,0,1-.78-13.519,20.361,20.361,0,0,0-1.038-7.54,14.1,14.1,0,0,1,0-4.934c.516-2.084-2.084-12.216-2.084-12.216l-2.077-10.14Z" transform="translate(-305.303 -326.406)" fill="#be6f72"/><path d="M819.5,722.912s-1.561,2.857-10.655,3.9c-4.723.536-4.755-.318-3.691-1.27a16.466,16.466,0,0,1,2.91-1.852s3.38-2.335,3.9-3.9,2.341-.258,2.341-.258c2.6,3.9,3.122-1.045,3.638-.522a11.729,11.729,0,0,1,1.2,2.785C819.35,722.423,819.5,722.912,819.5,722.912Z" transform="translate(-306.05 -350.469)" fill="#ff6f61"/><path d="M819.5,724.358s-1.561,2.857-10.655,3.9c-4.723.536-4.755-.318-3.691-1.27.741.47,2.235.661,5.245-.549,4.332-1.773,7.474-2.8,8.737-3.195C819.35,723.868,819.5,724.358,819.5,724.358Z" transform="translate(-306.05 -351.915)" opacity="0.1"/><path d="M819.618,682.73a20.36,20.36,0,0,0-1.039-7.54,14.1,14.1,0,0,1,0-4.934c.516-2.083-2.083-12.216-2.083-12.216L814.419,647.9l-1.8.106,2.057,10.034s2.6,10.133,2.083,12.216a14.1,14.1,0,0,0,0,4.934,19.763,19.763,0,0,1,1.038,7.54,54.782,54.782,0,0,0,.781,13.519,2.276,2.276,0,0,1-.754,1.072,1.7,1.7,0,0,0,2.573-1.072A54.776,54.776,0,0,1,819.618,682.73Z" transform="translate(-308.77 -326.406)" opacity="0.1"/><path d="M811.324,562.42a9.261,9.261,0,0,0-4.908,1.4,8.83,8.83,0,0,0-9.921,4.729,10.767,10.767,0,0,0-3.367,8.043c0,5.529,3.724,10.007,8.314,10.007,3.307,0,6.2-2.355,7.534-5.761a9.125,9.125,0,0,0,2.341.3,9.359,9.359,0,1,0,0-18.718Z" transform="translate(-302.169 -297.532)" fill="#3f3d56"/><path d="M826.9,650.65l.78,2.077s.781,13.777.516,15.08,1.045,5.953,1.045,5.953a33.276,33.276,0,0,1,1.819,14.551l.258,7.276s1.038,2.857.522,3.38-4.438-.463-4.438-.463.523-5.457-1.323-8.837-2.857-11.958-2.857-11.958-2.6-5.2-2.6-7.276-4.16-18.976-4.16-18.976Z" transform="translate(-310.058 -327.337)" fill="#be6f72"/><path d="M801.57,641.884s.265-9.359,1.323-12.216a19.384,19.384,0,0,0,1.158-4.147s15.735,2.844,17.038,1.806a22.583,22.583,0,0,0,.522,3.9,37.38,37.38,0,0,1,1.039,9.882c-.284,3.122,0,3.115,0,3.115s-10.662,1.561-10.92,0-1.039-1.554-1.039-1.554S801.054,642.373,801.57,641.884Z" transform="translate(-305.019 -318.829)" fill="#3f3d56"/><g transform="translate(496.55 308.497)" opacity="0.1"><path d="M810.158,649.986s-6.574-.179-8.559-.536v.536c-.516.516,9.1.78,9.1.78a.66.66,0,0,1,.357.146C810.708,649.986,810.158,649.986,810.158,649.986Z" transform="translate(-801.58 -635.428)"/><path d="M826.751,632.146a22.579,22.579,0,0,1-.522-3.9,1.117,1.117,0,0,1-.443.159,13.16,13.16,0,0,0,.443,2.956,41.276,41.276,0,0,1,1.038,9.882c-.284,3.122,0,3.115,0,3.115s-8.433,1.237-10.477.41a3.145,3.145,0,0,0,.079.37c.258,1.561,10.92,0,10.92,0s-.265,0,0-3.115A38.645,38.645,0,0,0,826.751,632.146Z" transform="translate(-806.73 -628.25)"/><path d="M810.158,649.986s-6.574-.179-8.559-.536v.536c-.516.516,9.1.78,9.1.78a.66.66,0,0,1,.357.146C810.708,649.986,810.158,649.986,810.158,649.986Z" transform="translate(-801.58 -635.428)"/><path d="M826.751,632.146a22.579,22.579,0,0,1-.522-3.9,1.117,1.117,0,0,1-.443.159,13.16,13.16,0,0,0,.443,2.956,41.276,41.276,0,0,1,1.038,9.882c-.284,3.122,0,3.115,0,3.115s-8.433,1.237-10.477.41a3.145,3.145,0,0,0,.079.37c.258,1.561,10.92,0,10.92,0s-.265,0,0-3.115A38.645,38.645,0,0,0,826.751,632.146Z" transform="translate(-806.73 -628.25)"/></g><path d="M816.036,585.812a3.445,3.445,0,0,0,.992,1.283,2.225,2.225,0,0,0,.933.4c-.582.337-1.217.589-1.8.926a32,32,0,0,0-2.646,1.984,5.384,5.384,0,0,1-3.036,1.177,3.717,3.717,0,0,0,.423-3.7,3.454,3.454,0,0,1-.463-1.283,2.306,2.306,0,0,1,1.277-1.72c.5-.337,1.005-.661,1.521-.985.4-.251,1.012-.78,1.521-.761s.569.47.661.933A7.329,7.329,0,0,0,816.036,585.812Z" transform="translate(-308.035 -304.546)" fill="#be6f72"/><path d="M816.036,585.812a3.445,3.445,0,0,0,.992,1.283,2.225,2.225,0,0,0,.933.4c-.582.337-1.217.589-1.8.926a32,32,0,0,0-2.646,1.984,5.384,5.384,0,0,1-3.036,1.177,3.717,3.717,0,0,0,.423-3.7,3.454,3.454,0,0,1-.463-1.283,2.306,2.306,0,0,1,1.277-1.72c.5-.337,1.005-.661,1.521-.985.4-.251,1.012-.78,1.521-.761s.569.47.661.933A7.329,7.329,0,0,0,816.036,585.812Z" transform="translate(-308.035 -304.546)" opacity="0.1"/><circle cx="5.979" cy="5.979" r="5.979" transform="translate(508.127 284.652)" fill="#be6f72"/><path d="M837.063,726.475c0,.523-1.039,1.819-1.039,1.819a12.87,12.87,0,0,1-6.237-.781c-.522-.258.258-1.819.258-1.819l.06-.126a6.316,6.316,0,0,1,.986-1.693,7.4,7.4,0,0,0,.827-2.646c1.614-2.646,4.478,1.144,4.478,1.144s.364,1.984.556,3.188A9.079,9.079,0,0,1,837.063,726.475Z" transform="translate(-314.505 -350.916)" fill="#ff6f61"/><path d="M837.063,729.166c0,.523-1.039,1.819-1.039,1.819a12.87,12.87,0,0,1-6.237-.781c-.522-.258.258-1.819.258-1.819l.06-.126a12.568,12.568,0,0,0,5.662,1.164l1.184-1.184C837.017,728.683,837.063,729.034,837.063,729.166Z" transform="translate(-314.505 -353.608)" opacity="0.1"/><circle cx="5.847" cy="5.847" r="5.847" transform="translate(496.282 272.294)" fill="#be6f72"/><path d="M801.93,599.339c-1.283,1.224-1.495,3.162-1.627,4.928l-.2,2.586a13.052,13.052,0,0,0-.046,2.1c0,.43.106.866.146,1.323s.053,1.032.06,1.554v3.823a4.51,4.51,0,0,0,.423,2.295,1.561,1.561,0,0,0,1.984.714,2.263,2.263,0,0,0,.82-1.27,19.738,19.738,0,0,0,1.323-4.842c.053-.575.06-1.151.112-1.726s.152-1.177.238-1.76c.37-2.434.536-4.895.7-7.348.046-.727.7-3.592-.251-3.909-.463-.152-1.422.324-1.865.483A5.252,5.252,0,0,0,801.93,599.339Z" transform="translate(-304.524 -309.487)" fill="#be6f72"/><path d="M801.93,599.339c-1.283,1.224-1.495,3.162-1.627,4.928l-.2,2.586a13.052,13.052,0,0,0-.046,2.1c0,.43.106.866.146,1.323s.053,1.032.06,1.554v3.823a4.51,4.51,0,0,0,.423,2.295,1.561,1.561,0,0,0,1.984.714,2.263,2.263,0,0,0,.82-1.27,19.738,19.738,0,0,0,1.323-4.842c.053-.575.06-1.151.112-1.726s.152-1.177.238-1.76c.37-2.434.536-4.895.7-7.348.046-.727.7-3.592-.251-3.909-.463-.152-1.422.324-1.865.483A5.252,5.252,0,0,0,801.93,599.339Z" transform="translate(-304.524 -309.487)" opacity="0.1"/><path d="M815.555,588.16s-4.418,3.38-7.018,4.16c0,0-1.541,1.759-1.806,2.183s-.794,5.093-1.323,6.138-1.819,3.38,0,5.715a9.908,9.908,0,0,1,.258,3.122c-.258.78-1.2,3.638-.344,3.77s3.466,1.944,5.8,1.428,11.052,1.984,11.052,1.984,1.442-13.394,2.487-15.762l-2.341-.78s-6.5-3.9-2.6-9.875C819.716,590.243,816.065,589.463,815.555,588.16Z" transform="translate(-306.006 -306.232)" fill="#ff6f61"/><path d="M796.755,610.968l5.371,3.8a.4.4,0,0,0,.469,0l1.455-1.091a.41.41,0,0,0,0-.622l-4.134-3.671a.4.4,0,0,0-.4-.079l-2.652.952a.4.4,0,0,0-.106.708Z" transform="translate(-303.359 -313.387)" fill="#3f3d56"/><path d="M799.225,623.911a14.4,14.4,0,0,1-.562-4.055l-.079-1.832a5.289,5.289,0,0,1,.192-2.117A3.459,3.459,0,0,1,801,613.956a7.7,7.7,0,0,1,3.036-.218.781.781,0,0,1,.39.106.727.727,0,0,1,.212.357,2.4,2.4,0,0,1,.119,1.911,1.986,1.986,0,0,1-.608.628c-.721.516-1.561.86-2.242,1.422a.813.813,0,0,0-.3.384.892.892,0,0,0,0,.417,6.666,6.666,0,0,0,.344,1.065,1.052,1.052,0,0,0,.3.45c.126.106.291.146.423.245.284.232.88.536.846.9-.1,1.323-.893,2.8-1.2,4.114C801.718,628.3,799.608,625.029,799.225,623.911Z" transform="translate(-304.022 -314.868)" fill="#be6f72"/><g transform="translate(503.434 294.279)" opacity="0.1"><path d="M812.126,628.218h-.145a4.448,4.448,0,0,0,1.7,0h.165a5.967,5.967,0,0,0-1.72,0Z" transform="translate(-811.98 -614.05)"/><path d="M831.523,606.83c-.932,2.1-2.308,13.453-2.553,15.709.913.238,1.515.41,1.515.41s1.429-13.361,2.474-15.729Z" transform="translate(-817.733 -606.83)"/></g><path d="M822.829,597.96a1.984,1.984,0,0,0,.853,1.29,11.448,11.448,0,0,1,1.515,1.534,10.868,10.868,0,0,1,1.5,3.01,36.872,36.872,0,0,1,1.25,4.114c-3.307,1.535-7.064,1.462-10.583,2.474a8.446,8.446,0,0,0-3.968,2.348,5.469,5.469,0,0,0-1.462,4.306.45.45,0,0,0,.542.443,3.968,3.968,0,0,0,2.427-.833,11.553,11.553,0,0,0,1.859-1.826,2.988,2.988,0,0,1,1.323-.979,21.642,21.642,0,0,1,5.953-.582,75.063,75.063,0,0,0,8.87-.7.714.714,0,0,0,.794-.794c.291-3.9-1.158-7.712-2.646-11.33q-.893-2.176-1.839-4.332a12.829,12.829,0,0,0-2.249-3.849,3.97,3.97,0,0,0-1.323-.979,5.593,5.593,0,0,0-1.773-.331,12.569,12.569,0,0,0-2.9-.053,6.182,6.182,0,0,0-.278,1.5,13.006,13.006,0,0,0,1.6,5.073C822.393,597.709,822.677,597.722,822.829,597.96Z" transform="translate(-308.515 -307.135)" fill="#be6f72"/><path d="M812.071,606.67a4.848,4.848,0,0,0-.661,2.526,3.4,3.4,0,0,0,.166,1.032,3.346,3.346,0,0,0,2.11,1.984" transform="translate(-308.367 -312.504)" fill="none" stroke="#000" stroke-miterlimit="10" stroke-width="1" opacity="0.1"/><path d="M811.372,572.754a3.033,3.033,0,0,0-.959.152c-.866-1.323-2.9-2.235-5.291-2.235-3.162,0-5.721,1.634-5.721,3.644s2.56,3.638,5.721,3.638a8.045,8.045,0,0,0,3.433-.728,3.115,3.115,0,1,0,2.8-4.471Z" transform="translate(-304.3 -300.33)" fill="#3f3d56"/><path d="M811.623,579.49a3.109,3.109,0,0,1-2.8-1.766,8.052,8.052,0,0,1-3.432.728c-3.155,0-5.715-1.627-5.715-3.638a2.2,2.2,0,0,1,0-.364,2.468,2.468,0,0,0-.291,1.144c0,1.984,2.56,3.638,5.721,3.638a8.05,8.05,0,0,0,3.433-.728,3.115,3.115,0,0,0,5.867-.774,3.1,3.1,0,0,1-2.778,1.759Z" transform="translate(-304.293 -301.609)" opacity="0.1"/><path d="M796.489,570.079a8.83,8.83,0,0,1,9.921-4.729,9.352,9.352,0,0,1,14.234,7.183v-.781a9.352,9.352,0,0,0-14.267-7.937,8.83,8.83,0,0,0-9.921,4.729,10.768,10.768,0,0,0-3.367,8.043v.78A10.582,10.582,0,0,1,796.489,570.079Z" transform="translate(-302.155 -297.537)" opacity="0.1"/><path d="M884.591,540.951c1.726-3.195-.232-7.117-2.487-9.968s-4.994-5.814-4.934-9.452c.079-5.219,5.622-8.3,10.054-11.072a48.876,48.876,0,0,0,9.022-7.276,13.181,13.181,0,0,0,2.778-3.711,15.243,15.243,0,0,0,.834-6.614q-.291-11.178-1.1-22.329" transform="translate(-330.543 -266.441)" fill="none" stroke="#3f3d56" stroke-miterlimit="10" stroke-width="4"/><path d="M914.189,465.957a8.13,8.13,0,0,0-4.061-6.667l-1.826,3.6.053-4.365a7.992,7.992,0,0,0-2.679-.324,8.142,8.142,0,1,0,8.512,7.752Z" transform="translate(-337.554 -262.298)" fill="#4285f4"/><path d="M892.7,547.186a8.142,8.142,0,1,1,.39-6.561L888,544.765l5.6-1.323a8.1,8.1,0,0,1-.9,3.744Z" transform="translate(-330.599 -288.374)" fill="#4285f4"/><path d="M890.121,521.02a8.142,8.142,0,0,1-2.586-15.973l-.04,3.353,1.846-3.644h0a8.144,8.144,0,1,1,.761,16.271Z" transform="translate(-332.043 -278.037)" fill="#4285f4"/><path d="M919.99,501.139a8.142,8.142,0,1,1,3.6-15.213l-1.442,3.968,2.963-2.844a8.1,8.1,0,0,1,2.646,5.622,7.86,7.86,0,0,1-.205,2.242A8.142,8.142,0,0,1,919.99,501.139Z" transform="translate(-342.117 -271.315)" fill="#4285f4"/><path d="M913.093,470.41c-1.878.212-3.71.794-5.6.913a6.066,6.066,0,0,1-5.152-1.806,25.308,25.308,0,0,1-1.5-2.646,5.852,5.852,0,0,0-2.05-1.931,8.142,8.142,0,1,0,15.213,5.4C913.7,470.357,913.4,470.377,913.093,470.41Z" transform="translate(-337.549 -264.58)" opacity="0.1"/><path d="M920.007,503.524a8.149,8.149,0,0,1-7.745-11.615,6.024,6.024,0,0,1,1.64,1.634,26.153,26.153,0,0,0,1.614,2.692,6.626,6.626,0,0,0,5.4,1.892c1.964-.093,3.863-.661,5.821-.827.271,0,.549-.046.82-.053A8.142,8.142,0,0,1,920.007,503.524Z" transform="translate(-342.135 -273.699)" opacity="0.1"/><path d="M890.122,523.475A8.135,8.135,0,0,1,882.31,512a6.708,6.708,0,0,1,1.72,1.654c.661.893,1.025,1.925,1.766,2.745a7.537,7.537,0,0,0,5.768,2.024c2.083-.046,3.969-.542,5.953-.694a8.142,8.142,0,0,1-7.395,5.748Z" transform="translate(-332.043 -280.491)" opacity="0.1"/><path d="M892.719,549.874a8.149,8.149,0,0,1-14.849-6.614,7.98,7.98,0,0,1,1.786,1.594c.781.946,1.29,1.984,2.183,2.9,1.667,1.634,4.352,2.3,6.746,2.368a35.674,35.674,0,0,0,4.134-.245Z" transform="translate(-330.624 -291.061)" opacity="0.1"/><path d="M1043.59,692.951c1.726-3.195-.231-7.117-2.487-9.968s-4.994-5.814-4.934-9.452c.079-5.219,5.622-8.3,10.054-11.072a48.879,48.879,0,0,0,9.022-7.276,13.178,13.178,0,0,0,2.778-3.711,15.24,15.24,0,0,0,.833-6.614q-.285-11.178-1.1-22.329" transform="translate(-384.135 -317.816)" fill="none" stroke="#3f3d56" stroke-miterlimit="10" stroke-width="4"/><path d="M1073.205,617.958a8.128,8.128,0,0,0-4.061-6.667l-1.826,3.6.053-4.365a7.99,7.99,0,0,0-2.646-.324,8.142,8.142,0,1,0,8.512,7.752Z" transform="translate(-391.177 -313.69)" fill="#4285f4"/><path d="M1051.7,699.186a8.142,8.142,0,1,1,.39-6.561L1047,696.765l5.6-1.323A8.094,8.094,0,0,1,1051.7,699.186Z" transform="translate(-384.184 -339.753)" fill="#4285f4"/><path d="M1049.121,673.02a8.142,8.142,0,0,1-2.586-15.973l-.04,3.353,1.846-3.644h0a8.144,8.144,0,1,1,.761,16.271Z" transform="translate(-385.632 -329.401)" fill="#4285f4"/><path d="M1078.99,653.139a8.142,8.142,0,1,1,3.6-15.213l-1.442,3.969,2.963-2.844a8.1,8.1,0,0,1,2.646,5.622,7.863,7.863,0,0,1-.205,2.242A8.142,8.142,0,0,1,1078.99,653.139Z" transform="translate(-395.737 -322.67)" fill="#4285f4"/><path d="M1072.093,622.41c-1.879.212-3.711.794-5.6.913a6.066,6.066,0,0,1-5.152-1.806,25.169,25.169,0,0,1-1.5-2.646,5.852,5.852,0,0,0-2.051-1.931,8.142,8.142,0,1,0,15.213,5.4C1072.7,622.357,1072.4,622.377,1072.093,622.41Z" transform="translate(-391.155 -315.972)" opacity="0.1"/><path d="M1079.007,655.524a8.149,8.149,0,0,1-7.745-11.615,6.027,6.027,0,0,1,1.641,1.634,26.006,26.006,0,0,0,1.614,2.692,6.624,6.624,0,0,0,5.4,1.892c1.964-.093,3.863-.661,5.821-.827.271,0,.549-.046.82-.053A8.142,8.142,0,0,1,1079.007,655.524Z" transform="translate(-395.754 -325.055)" opacity="0.1"/><path d="M1049.122,675.475A8.135,8.135,0,0,1,1041.31,664a6.707,6.707,0,0,1,1.72,1.654c.661.893,1.025,1.925,1.766,2.745a7.536,7.536,0,0,0,5.767,2.024c2.084-.046,3.969-.542,5.953-.694A8.142,8.142,0,0,1,1049.122,675.475Z" transform="translate(-385.633 -331.857)" opacity="0.1"/><path d="M1051.719,701.874a8.149,8.149,0,0,1-14.849-6.614,7.971,7.971,0,0,1,1.786,1.594c.781.946,1.323,1.984,2.183,2.9,1.667,1.634,4.352,2.3,6.747,2.368A35.672,35.672,0,0,0,1051.719,701.874Z" transform="translate(-384.208 -342.441)" opacity="0.1"/><path d="M484.6,578.4a6.488,6.488,0,0,0-2.586-5.238,7.606,7.606,0,0,0-6.356-7.461,7.593,7.593,0,0,0-5.06-5.655h0a6.462,6.462,0,0,0-.939-.218h-1.118a7.448,7.448,0,0,0-7.2,6.363c-2.322-.536-4.445.159-4.835,1.627A1.984,1.984,0,0,0,456.58,569a5.119,5.119,0,0,0,3.413,2.765l.225.066.337.086h.073a5.848,5.848,0,0,0-.556,2.507,5.781,5.781,0,0,0,3.115,5.159l-.152.093a2.064,2.064,0,0,0-.5.7,10.493,10.493,0,0,0-.972,2.341c-.165.7-.192,1.429-.4,2.123-.384,1.277-1.363,2.355-1.475,3.684-.053.6.046,1.323-.377,1.706a2.054,2.054,0,0,1-.337.238,2.732,2.732,0,0,0-.734.774,2.564,2.564,0,0,1-.516.741c-.384.284-1.012.258-1.2.7s.3.966.185,1.448-.523.575-.82.847a2.943,2.943,0,0,0-.708,1.323,4.339,4.339,0,0,1-3.572-.913,6.681,6.681,0,0,1,.37,1.323,5.794,5.794,0,0,0-1.925-.966,6.077,6.077,0,0,1-2.05-1.521l1.1-.152-4.848-7.4-1.435-.3,1.283,2.467a.787.787,0,0,0-.437.523,2.243,2.243,0,0,0-.046.84,15.05,15.05,0,0,0,.331,1.984l.37,1.733c.033.159.073.324.119.483a4.556,4.556,0,0,0-1.435.159,12.5,12.5,0,0,0-2.983-.708,1.655,1.655,0,0,0-.661,0,1.715,1.715,0,0,0-.628.509,20.336,20.336,0,0,0-2.216,3.122c-2.646,4.537-6.092,8.5-9.352,12.6-2.249.913-4.517,1.779-6.786,2.646L415.5,614.6a7.4,7.4,0,0,1-3.029.661c-.463,0-1.038-.1-1.323.3a2.781,2.781,0,0,0-.3.661l-.5.053h0a5.779,5.779,0,0,0-1.171-2.156.741.741,0,0,0-.549.423c-.119.218-.192.456-.331.661-.258.384-.714.569-1.038.893s-.529.827-.886,1.157a3.505,3.505,0,0,1-1.66.661,10.467,10.467,0,0,0-2.6.985,4.187,4.187,0,0,1-.959.443,3.607,3.607,0,0,1-1.131.04l-2.58-.192a2.04,2.04,0,0,0-.694.033,1.323,1.323,0,0,0-.82,1.323,2.083,2.083,0,0,0,.82,1.422,5.247,5.247,0,0,0,1.468.761,43.077,43.077,0,0,0,6.879,2.037v.522a11.739,11.739,0,0,0,5.291,1.257.821.821,0,0,0,.4-.073.874.874,0,0,0,.331-.516,21.28,21.28,0,0,0,1.032-5.066h0a2.647,2.647,0,0,0,.933-.238c.886-.245,1.773.364,2.692.463,1.131.126,2.176-.536,3.248-.939l.463-.152a5.081,5.081,0,0,1-1.072,1.025c-.443.318-.939.556-1.369.886a9.418,9.418,0,0,1-1.164.9,7.27,7.27,0,0,1-.893.344,5.9,5.9,0,0,0-1.277.661,2.585,2.585,0,0,0-.866.847,1.27,1.27,0,0,0-.073,1.19,1.257,1.257,0,0,0,.853.6,3.5,3.5,0,0,0,1.052,0c1.4-.106,2.8-.231,4.193-.357a11.177,11.177,0,0,0,1.753-.251c.3-.073.608-.172.913-.258a8.157,8.157,0,0,1,1.594-.238,1.329,1.329,0,0,1,.463.046c.324.106.556.436.886.5a1.322,1.322,0,0,0,.661-.086,14.755,14.755,0,0,1,3.1-.331,1.28,1.28,0,0,0,1.2-.536c.212-.423-.172-1.1-.344-1.667a5.1,5.1,0,0,1-.146-1.1,6.872,6.872,0,0,0-.767-2.606,6.8,6.8,0,0,1-.575-1.191,30.07,30.07,0,0,0,5.708-2.9,10.21,10.21,0,0,1,3.254-1.567,8.85,8.85,0,0,1,4.087.476,93.005,93.005,0,0,1,9.372,3.267c1.462.6,2.917,1.237,4.425,1.693a6.9,6.9,0,0,0,1.574,1.528,7.277,7.277,0,0,0,3.406.933,44.629,44.629,0,0,0,4.8.179,8.088,8.088,0,0,0,3.572-.661,3.672,3.672,0,0,0,.747-.5,2.963,2.963,0,0,0,2.354-.866,5.707,5.707,0,0,0,1.792-2.831c.39-1.508.093-3.307,1.019-4.511.245-.331.569-.6.814-.926a2.607,2.607,0,0,0,.423-1.528.313.313,0,0,1,.04-.06,5.593,5.593,0,0,0,.4-1.521,8.7,8.7,0,0,1,.43-1.2,37.15,37.15,0,0,0,1.23-3.565,20.8,20.8,0,0,0,.569-2.447c.1-.661.159-1.323.212-1.984a12.332,12.332,0,0,1,.6-3.062,24.921,24.921,0,0,0,1.389-7.329v-.145a4.915,4.915,0,0,0,4.352-5,5.219,5.219,0,0,0-.456-2.136,6.616,6.616,0,0,0,.886-3.334Zm-23.666,28.752c.073.258.159.509.245.761-.39-.377-.767-.767-1.157-1.151.152.053.311.1.456.159a2.469,2.469,0,0,1,.437.231Zm-1.872-1.27c-2.288-1.984-4.934-3.525-7.276-5.45,1.277.628,2.52,1.362,3.75,2.064q2.189,1.25,4.438,2.4a3.631,3.631,0,0,1-.933.985Zm.972-5,.112-.112v.787l-.615-.212a5.455,5.455,0,0,0,.483-.463Zm-20.127,5.357a18.939,18.939,0,0,0,2.434-3.472,23.377,23.377,0,0,0,3.631,4.054C443.96,606.566,441.936,606.348,439.912,606.242Z" transform="translate(-168.058 -296.587)" fill="url(#b)"/><path d="M415.35,438.25l1.442.291,4.914,7.269-2.163.291Z" transform="translate(-140.215 -147.915)" fill="#2f2e41"/><path d="M414.49,645.423a28.274,28.274,0,0,0,1.442,3.75,35.682,35.682,0,0,0,4.8-1.369,15.123,15.123,0,0,0-1-1.323,4.928,4.928,0,0,0-1.356-1.038,3.727,3.727,0,0,0-1.647,0C415.985,645.423,415.237,645.436,414.49,645.423Z" transform="translate(-174.37 -325.543)" fill="#fbbebe"/><path d="M412.054,646.294a2.99,2.99,0,0,1-1.64-1.865,6.008,6.008,0,0,0-1.25-2.229.714.714,0,0,0-.556.417c-.119.212-.192.45-.324.661-.264.377-.727.562-1.058.88s-.529.813-.886,1.138a3.516,3.516,0,0,1-1.673.661,10.849,10.849,0,0,0-2.646.972,4.559,4.559,0,0,1-.972.436,3.846,3.846,0,0,1-1.138,0l-2.606-.185a2.042,2.042,0,0,0-.661,0,1.263,1.263,0,0,0-.827,1.323,1.985,1.985,0,0,0,.827,1.4,5.488,5.488,0,0,0,1.482.754,43.6,43.6,0,0,0,6.985,1.984v.516a12.091,12.091,0,0,0,5.324,1.237.9.9,0,0,0,.4-.066.874.874,0,0,0,.331-.516,20.635,20.635,0,0,0,1.091-5.662,4.51,4.51,0,0,0-.112-1.462c-.146-.47.344-.271-.106-.457" transform="translate(-168.059 -324.476)" fill="#2f2e41"/><path d="M469.67,632.485c-7.725.463-15.358-1.8-23.1-2.037a11.271,11.271,0,0,0-2.871.179,14.454,14.454,0,0,0-2.844,1.1c-4.147,1.931-8.44,3.532-12.726,5.126l-4.928,1.832a7.459,7.459,0,0,1-3.049.661c-.47,0-1.045-.1-1.323.291-.8,1.19-.423,2.93.106,4.266.172.43.463.9.926.946a2.7,2.7,0,0,0,.939-.238c.893-.238,1.786.364,2.712.463,1.138.119,2.2-.529,3.274-.926a28.433,28.433,0,0,1,5.609-.952,25.131,25.131,0,0,0,8.784-3.644,10.25,10.25,0,0,1,3.274-1.548,9.06,9.06,0,0,1,4.121.47,94.559,94.559,0,0,1,9.452,3.215,44.063,44.063,0,0,0,4.934,1.806,17.859,17.859,0,0,0,11.066-.661c1.237-.489,2.579-1.323,2.646-2.685.046-.761-.549-1.429-.939-2.084-.251-.417-.509-.833-.781-1.237C473.632,634.912,472.018,632.346,469.67,632.485Z" transform="translate(-175.652 -320.489)" fill="#2f2e41"/><path d="M469.67,632.485c-7.725.463-15.358-1.8-23.1-2.037a11.271,11.271,0,0,0-2.871.179,14.454,14.454,0,0,0-2.844,1.1c-4.147,1.931-8.44,3.532-12.726,5.126l-4.928,1.832a7.459,7.459,0,0,1-3.049.661c-.47,0-1.045-.1-1.323.291-.8,1.19-.423,2.93.106,4.266.172.43.463.9.926.946a2.7,2.7,0,0,0,.939-.238c.893-.238,1.786.364,2.712.463,1.138.119,2.2-.529,3.274-.926a28.433,28.433,0,0,1,5.609-.952,25.131,25.131,0,0,0,8.784-3.644,10.25,10.25,0,0,1,3.274-1.548,9.06,9.06,0,0,1,4.121.47,94.559,94.559,0,0,1,9.452,3.215,44.063,44.063,0,0,0,4.934,1.806,17.859,17.859,0,0,0,11.066-.661c1.237-.489,2.579-1.323,2.646-2.685.046-.761-.549-1.429-.939-2.084-.251-.417-.509-.833-.781-1.237C473.632,634.912,472.018,632.346,469.67,632.485Z" transform="translate(-175.652 -320.489)" opacity="0.1"/><path d="M436.92,644.353q1.812.615,3.658,1.138c.661-1.131,1.984-1.918,2.269-3.215a.3.3,0,0,0,0-.172.317.317,0,0,0-.139-.126,6.932,6.932,0,0,0-2.871-.84c-.794-.046-1.158.78-1.515,1.363C438.183,642.759,437.244,644.479,436.92,644.353Z" transform="translate(-181.942 -324.116)" fill="#fbbebe"/><path d="M433.365,643.841a2.645,2.645,0,0,1-1.779-1.171c-.165-.3-.351-.7-.695-.661s-.456.4-.529.708a19.835,19.835,0,0,1-1,3.433,6.442,6.442,0,0,1-2.136,2.811c-.45.311-.946.542-1.389.873a9.52,9.52,0,0,1-1.171.886,6.984,6.984,0,0,1-.9.331,6.228,6.228,0,0,0-1.283.661,2.548,2.548,0,0,0-.88.84,1.211,1.211,0,0,0-.066,1.171,1.25,1.25,0,0,0,.853.582,3.6,3.6,0,0,0,1.065,0c1.409-.1,2.818-.225,4.226-.35a12.218,12.218,0,0,0,1.766-.245l.919-.251a7.311,7.311,0,0,1,1.607-.238,1.251,1.251,0,0,1,.47.046c.324.106.556.43.893.5a1.5,1.5,0,0,0,.661-.086,14.6,14.6,0,0,1,3.129-.324,1.32,1.32,0,0,0,1.217-.529c.265-.516-.172-1.091-.351-1.647a5.284,5.284,0,0,1-.146-1.078,6.575,6.575,0,0,0-.774-2.566c-.357-.661-.847-1.389-.6-2.09a1.985,1.985,0,0,0,.238-.721C436.619,643.583,434.013,643.986,433.365,643.841Z" transform="translate(-176.704 -324.41)" fill="#2f2e41"/><path d="M475.088,611.323a6.033,6.033,0,0,1-3.082-3.056c-.126-.291-.232-.6-.357-.893a6.788,6.788,0,0,0-1.839-2.56.906.906,0,0,0-.661-.284.721.721,0,0,0-.5.536,2.045,2.045,0,0,0-.053.827,14.736,14.736,0,0,0,.331,1.931l.377,1.706a3.746,3.746,0,0,0,.232.761,2.646,2.646,0,0,0,.628.747c.344.317.695.622,1.045.926a3.6,3.6,0,0,0,.661.456,3.844,3.844,0,0,0,1.171.344,9.962,9.962,0,0,1,4.392,1.693v-1.27a1.678,1.678,0,0,0-.331-.919A5.863,5.863,0,0,0,475.088,611.323Z" transform="translate(-192.629 -311.777)" fill="#fbbebe"/><path d="M475.088,611.323a6.033,6.033,0,0,1-3.082-3.056c-.126-.291-.232-.6-.357-.893a6.788,6.788,0,0,0-1.839-2.56.906.906,0,0,0-.661-.284.721.721,0,0,0-.5.536,2.045,2.045,0,0,0-.053.827,14.736,14.736,0,0,0,.331,1.931l.377,1.706a3.746,3.746,0,0,0,.232.761,2.646,2.646,0,0,0,.628.747c.344.317.695.622,1.045.926a3.6,3.6,0,0,0,.661.456,3.844,3.844,0,0,0,1.171.344,9.962,9.962,0,0,1,4.392,1.693v-1.27a1.678,1.678,0,0,0-.331-.919A5.863,5.863,0,0,0,475.088,611.323Z" transform="translate(-192.629 -311.777)" opacity="0.1"/><ellipse cx="1.878" cy="1.892" rx="1.878" ry="1.892" transform="translate(296.337 282.695)" fill="#2f2e41"/><path d="M493.787,590.451a2.031,2.031,0,0,0-1.482.212,2.058,2.058,0,0,0-.509.694,10.092,10.092,0,0,0-.979,2.3c-.165.661-.192,1.409-.4,2.09-.384,1.257-1.369,2.321-1.482,3.631-.053.589.046,1.277-.384,1.673a2.435,2.435,0,0,1-.337.245,2.54,2.54,0,0,0-.741.761,2.493,2.493,0,0,1-.523.721c-.384.284-1.019.258-1.2.662s.3.952.185,1.429-.529.569-.827.833a2.89,2.89,0,0,0-.714,1.323,4.412,4.412,0,0,1-3.6-.893,11.455,11.455,0,0,1,.562,4.114,1.68,1.68,0,0,1-.331,1.27,22.9,22.9,0,0,1,4.412.767,3.042,3.042,0,0,0,1.925,0,3.212,3.212,0,0,0,.886-.7,5.649,5.649,0,0,0,1.819-2.8,16.468,16.468,0,0,0,.033-1.9,10.7,10.7,0,0,1,.483-2.308,27.465,27.465,0,0,0,.84-4.749c.086-.992.946-1.786,1.4-2.646a12.956,12.956,0,0,0,1.779-5.291C494.62,591.278,494.409,590.517,493.787,590.451Z" transform="translate(-196.747 -306.991)" fill="#2f2e41"/><path d="M493.787,590.451a2.031,2.031,0,0,0-1.482.212,2.058,2.058,0,0,0-.509.694,10.092,10.092,0,0,0-.979,2.3c-.165.661-.192,1.409-.4,2.09-.384,1.257-1.369,2.321-1.482,3.631-.053.589.046,1.277-.384,1.673a2.435,2.435,0,0,1-.337.245,2.54,2.54,0,0,0-.741.761,2.493,2.493,0,0,1-.523.721c-.384.284-1.019.258-1.2.662s.3.952.185,1.429-.529.569-.827.833a2.89,2.89,0,0,0-.714,1.323,4.412,4.412,0,0,1-3.6-.893,11.455,11.455,0,0,1,.562,4.114,1.68,1.68,0,0,1-.331,1.27,22.9,22.9,0,0,1,4.412.767,3.042,3.042,0,0,0,1.925,0,3.212,3.212,0,0,0,.886-.7,5.649,5.649,0,0,0,1.819-2.8,16.468,16.468,0,0,0,.033-1.9,10.7,10.7,0,0,1,.483-2.308,27.465,27.465,0,0,0,.84-4.749c.086-.992.946-1.786,1.4-2.646a12.956,12.956,0,0,0,1.779-5.291C494.62,591.278,494.409,590.517,493.787,590.451Z" transform="translate(-196.747 -306.991)" opacity="0.1"/><path d="M478.032,627.855a17.44,17.44,0,0,1-4.088-3.413c-2.48-2.335-5.516-3.969-8.129-6.171a57.275,57.275,0,0,0-5.179-4.352,12.943,12.943,0,0,0-5.549-1.938,1.476,1.476,0,0,0-.662,0,1.521,1.521,0,0,0-.628.5,19.981,19.981,0,0,0-2.242,3.076c-3.307,5.622-8.01,10.345-11.906,15.57a.992.992,0,0,0-.192.37.919.919,0,0,0,.145.575l.794,1.548c.443.873,1.157,1.885,2.11,1.713a2.309,2.309,0,0,0,1.1-.708l3.558-3.406,3.73-3.565a28.61,28.61,0,0,0,5.834-6.892c1.111,1.931,3.089,3.195,4.438,4.961.516.661.939,1.409,1.4,2.123.734,1.138,1.574,2.209,2.408,3.307l4.279,5.457a8.194,8.194,0,0,0,1.984,1.984,7.574,7.574,0,0,0,3.433.919,45.333,45.333,0,0,0,4.835.172,8.335,8.335,0,0,0,3.6-.662,3.267,3.267,0,0,0,1.951-2.9,4.259,4.259,0,0,0-.615-1.806A14.74,14.74,0,0,0,478.032,627.855Z" transform="translate(-182.776 -314.232)" fill="#2f2e41"/><ellipse cx="1.449" cy="1.455" rx="1.449" ry="1.455" transform="translate(297.927 284.442)" fill="#e8e8f0"/><path d="M502.454,590.2a2.784,2.784,0,0,1,.159,2.09,8.475,8.475,0,0,1-.933,1.925,9.161,9.161,0,0,1-1.21,1.72,12.46,12.46,0,0,0,6.363-1.825,9.239,9.239,0,0,0,4.015-3.5,1.852,1.852,0,0,1-1.481-.278,5.3,5.3,0,0,1-1.131-1.052l-1.118-1.257a5.027,5.027,0,0,1-.661-.906,2.5,2.5,0,0,1-.3-1.462,8.5,8.5,0,0,1-1.482,1.23c-.8.523-1.68.9-2.487,1.416-.278.185-.913.476-.747.847S502.229,589.807,502.454,590.2Z" transform="translate(-203.393 -305.397)" fill="#fbbebe"/><path d="M502.454,590.2a2.784,2.784,0,0,1,.159,2.09,8.475,8.475,0,0,1-.933,1.925,9.161,9.161,0,0,1-1.21,1.72,12.46,12.46,0,0,0,6.363-1.825,9.239,9.239,0,0,0,4.015-3.5,1.852,1.852,0,0,1-1.481-.278,5.3,5.3,0,0,1-1.131-1.052l-1.118-1.257a5.027,5.027,0,0,1-.661-.906,2.5,2.5,0,0,1-.3-1.462,8.5,8.5,0,0,1-1.482,1.23c-.8.523-1.68.9-2.487,1.416-.278.185-.913.476-.747.847S502.229,589.807,502.454,590.2Z" transform="translate(-203.393 -305.397)" opacity="0.1"/><path d="M499,592.74a1.885,1.885,0,0,0,0,2.183c.066.079.3.575.4.582a.364.364,0,0,0,.251-.132,16.588,16.588,0,0,0,1.415-1.687,3.149,3.149,0,0,1,1.8-1.177,3.89,3.89,0,0,1,2.48.774,2.354,2.354,0,0,1,.853.661,2.31,2.31,0,0,1,.278.946,45.607,45.607,0,0,1,.251,6.012,23.685,23.685,0,0,1-.285,4.332c-.145.734-.357,1.455-.456,2.2a14.059,14.059,0,0,0-.093,1.984v2.765a7.28,7.28,0,0,0,.106,1.515c.132.6.417,1.164.609,1.753a11.458,11.458,0,0,1,.4,2.07l.377,2.857a3.612,3.612,0,0,1-.337,2.646c-.245.324-.569.589-.82.913-.933,1.217-.661,2.957-1.025,4.445a5.543,5.543,0,0,1-1.812,2.778,3,3,0,0,1-2.388.853,3.272,3.272,0,0,1-2.176-2.573,10.286,10.286,0,0,0-1.118-3.353,8.892,8.892,0,0,0-2.209-1.845A3.817,3.817,0,0,1,493.785,622c-.073-.417,0-.847-.073-1.27a3,3,0,0,0-1.845-2.427c-.6-.232-1.323-.317-1.667-.86a4.015,4.015,0,0,0,1.74-2.335,12,12,0,0,0,.423-2.95l.2-3.307a11.045,11.045,0,0,1,.787-4.293c.291-.6.661-1.158.959-1.746a18.955,18.955,0,0,0,1.025-2.56c.476-1.363.952-2.725,1.376-4.1a7.729,7.729,0,0,1,.754-1.912C497.82,593.62,498.335,592.872,499,592.74Z" transform="translate(-199.922 -307.651)" fill="#e8e8f0"/><path d="M492.312,614.022h.88l.185-1.323a2.756,2.756,0,0,1,.185-.774,4.624,4.624,0,0,1,.509-.741c.86-1.224.8-2.844,1.012-4.332a22.045,22.045,0,0,1,1.931-5.662l1.707-3.8a5.251,5.251,0,0,0,.37-.972,5.831,5.831,0,0,0,.106-1.124c0-.589.185-2.732.205-3.307,0-.218-.483-.1-.582-.291-.212-.423-.5.721-.906.972a2.223,2.223,0,0,0-.787,1.151c-.37.952-.6,1.984-.939,2.93a5.987,5.987,0,0,1-1.594,2.593c-.351.3-.754.549-1.085.88-1.058,1.045-1.164,2.705-1.2,4.2C492.285,605.331,492.113,614.022,492.312,614.022Z" transform="translate(-200.609 -307.398)" fill="#2f2e41"/><path d="M507.393,590.424a3,3,0,0,0-1.568,2.15,10.873,10.873,0,0,1-.794,2.646c-1.072,1.865-3.8,2.408-4.564,4.425a8.135,8.135,0,0,0-.3,2.084c-.132,1.448-.609,2.844-.754,4.286a19.107,19.107,0,0,0,.079,3.367l.959,11.39a15.217,15.217,0,0,1-.284,5.014,4.829,4.829,0,0,0,2.871-.476c.893-.41,1.713-.972,2.579-1.449a26.574,26.574,0,0,0,4.425-2.487,2.705,2.705,0,0,0,.6-.661,5.718,5.718,0,0,0,.4-1.495,8.07,8.07,0,0,1,.43-1.177,34.7,34.7,0,0,0,1.243-3.519,20.216,20.216,0,0,0,.569-2.408c.106-.661.165-1.323.218-1.984a11.635,11.635,0,0,1,.609-3.009,24.241,24.241,0,0,0,1.4-7.223,3.771,3.771,0,0,0-.073-1.058,5.655,5.655,0,0,0-.582-1.21c-.4-.747-.661-1.567-1.005-2.328a11.449,11.449,0,0,0-3.909-4.107A2.976,2.976,0,0,0,507.393,590.424Z" transform="translate(-203.018 -306.962)" fill="#2f2e41"/><path d="M475.989,616.6a6.9,6.9,0,0,1-1.819-1.382c-.238-.278-.437-.589-.661-.867a4.505,4.505,0,0,0-2.288-1.323,11.186,11.186,0,0,0-2.646-.258,4.8,4.8,0,0,0-1.766.212,1.8,1.8,0,0,0-1.171,1.257,2.084,2.084,0,0,0,.893,1.852,4.206,4.206,0,0,0,1.779.86,14.235,14.235,0,0,0,1.607.192c3.162.331,5.986,2.05,8.757,3.618q3.651,2.077,7.448,3.863a15.476,15.476,0,0,0,.126-2.282c0-.569-.046-1.442-.582-1.779a11.68,11.68,0,0,0-2.368-.708,37.24,37.24,0,0,1-4.769-1.932A23.707,23.707,0,0,1,475.989,616.6Z" transform="translate(-191.627 -314.56)" fill="#fbbebe"/><ellipse cx="5.635" cy="5.668" rx="5.635" ry="5.668" transform="translate(292.58 272.817)" fill="#fbbebe"/><path d="M506.817,599.812a9.028,9.028,0,0,0-1.091,2.044c-.661,1.429-1.786,2.646-2.335,4.16s-.556,3.459-1.687,4.7a1.646,1.646,0,0,0-.5.714,3.412,3.412,0,0,1-.053.516c-.165.45-.9.47-1.039.933-.04.132,0,.278-.066.41-.112.3-.509.344-.767.523-.549.37-.437,1.23-.827,1.766a1.488,1.488,0,0,1-1.409.5,4.959,4.959,0,0,1-1.462-.549,1.409,1.409,0,0,0-.529-.165,1.092,1.092,0,0,0-.608.212,3.75,3.75,0,0,0-1.521,3.208,10.482,10.482,0,0,0,.873,3.591,1.443,1.443,0,0,0,.284.536,1.264,1.264,0,0,0,1.4.106,6.616,6.616,0,0,1,1.369-.615c.873-.159,1.726.443,2.613.39a3.63,3.63,0,0,0,1.759-.774,9.723,9.723,0,0,0,2.368-1.984c.384-.509.661-1.085,1.005-1.627a20.85,20.85,0,0,1,1.422-1.9l3.254-3.969a9.143,9.143,0,0,0,.873-1.2,8.478,8.478,0,0,0,.661-1.819,13.93,13.93,0,0,0,.661-3.234,12.43,12.43,0,0,0-.238-2.712,9.585,9.585,0,0,0-.661-2.586C509.866,599.481,508.147,598.264,506.817,599.812Z" transform="translate(-200.84 -309.931)" fill="#2f2e41"/><path d="M516.526,579.586a6.349,6.349,0,0,0-2.606-5.159,7.547,7.547,0,0,0-6.409-7.348,7.322,7.322,0,0,0-14.426.39c-2.341-.529-4.484.159-4.875,1.6s1.263,3.307,3.73,3.968a6.948,6.948,0,0,0,2.394.238,7.328,7.328,0,0,0,5.04,3.142,7.52,7.52,0,0,0,5.5,5.675,6.319,6.319,0,0,0,1.7,2.348v.549a4.769,4.769,0,0,0,9.538,0,5.092,5.092,0,0,0-.456-2.11A6.375,6.375,0,0,0,516.526,579.586Z" transform="translate(-199.224 -297.115)" fill="#f86d70"/><path d="M489.795,569.372c.39-1.442,2.533-2.13,4.875-1.6a7.448,7.448,0,0,1,7.276-6.27h.483a7.174,7.174,0,0,0-2.077-.311,7.448,7.448,0,0,0-7.276,6.27c-2.341-.529-4.484.159-4.875,1.6s1.263,3.307,3.73,3.969a7.278,7.278,0,0,0,1.416.245C490.985,572.566,489.4,570.847,489.795,569.372Z" transform="translate(-199.23 -297.123)" opacity="0.1"/><path d="M511.378,591.577a4.944,4.944,0,0,1,0-.542,6.179,6.179,0,0,1-1.7-2.348,7.5,7.5,0,0,1-5.5-5.681,7.309,7.309,0,0,1-5.047-3.135,6.354,6.354,0,0,1-1.409-.04,7.348,7.348,0,0,0,4.861,2.89,7.52,7.52,0,0,0,5.5,5.675,6.317,6.317,0,0,0,1.7,2.348v.549a4.855,4.855,0,0,0,4.742,4.934A4.934,4.934,0,0,1,511.378,591.577Z" transform="translate(-202.461 -303.423)" opacity="0.1"/><ellipse cx="0.866" cy="1.157" rx="0.866" ry="1.157" transform="translate(298.714 279.246) rotate(-37.22)" fill="#fbbebe"/></g></g></svg>