<svg xmlns="http://www.w3.org/2000/svg" width="300" height="300" viewBox="0 0 300 300"><defs><style>.a{opacity:0.46;}.b{fill:#b6b8bd;}</style></defs><g class="a" transform="translate(-682.542 -2442.756)"><g transform="translate(682.77 2442.756)"><circle class="b" cx="3.5" cy="3.5" r="3.5" transform="translate(-0.228 0)"/><circle class="b" cx="3.5" cy="3.5" r="3.5" transform="translate(24.772 0)"/><ellipse class="b" cx="2.5" cy="3.5" rx="2.5" ry="3.5" transform="translate(49.772 0)"/><circle class="b" cx="3.5" cy="3.5" r="3.5" transform="translate(72.772 0)"/><circle class="b" cx="3.5" cy="3.5" r="3.5" transform="translate(97.772 0)"/><circle class="b" cx="3.5" cy="3.5" r="3.5" transform="translate(121.772 0)"/><circle class="b" cx="3.5" cy="3.5" r="3.5" transform="translate(145.772 0)"/><ellipse class="b" cx="4" cy="3.5" rx="4" ry="3.5" transform="translate(170.772 0)"/><ellipse class="b" cx="3" cy="3.5" rx="3" ry="3.5" transform="translate(195.772 0)"/><ellipse class="b" cx="3" cy="3.5" rx="3" ry="3.5" transform="translate(219.772 0)"/><ellipse class="b" cx="3" cy="3.5" rx="3" ry="3.5" transform="translate(244.772 0)"/><ellipse class="b" cx="4" cy="3.5" rx="4" ry="3.5" transform="translate(266.772 0)"/><circle class="b" cx="3.5" cy="3.5" r="3.5" transform="translate(292.772 0)"/></g><g transform="translate(682.77 2472.188)"><circle class="b" cx="3.5" cy="3.5" r="3.5" transform="translate(-0.228 -0.432)"/><circle class="b" cx="3.5" cy="3.5" r="3.5" transform="translate(24.772 -0.432)"/><ellipse class="b" cx="2.5" cy="3.5" rx="2.5" ry="3.5" transform="translate(49.772 -0.432)"/><circle class="b" cx="3.5" cy="3.5" r="3.5" transform="translate(72.772 -0.432)"/><circle class="b" cx="3.5" cy="3.5" r="3.5" transform="translate(97.772 -0.432)"/><circle class="b" cx="3.5" cy="3.5" r="3.5" transform="translate(121.772 -0.432)"/><circle class="b" cx="3.5" cy="3.5" r="3.5" transform="translate(145.772 -0.432)"/><ellipse class="b" cx="4" cy="3.5" rx="4" ry="3.5" transform="translate(170.772 -0.432)"/><ellipse class="b" cx="3" cy="3.5" rx="3" ry="3.5" transform="translate(195.772 -0.432)"/><ellipse class="b" cx="3" cy="3.5" rx="3" ry="3.5" transform="translate(219.772 -0.432)"/><ellipse class="b" cx="3" cy="3.5" rx="3" ry="3.5" transform="translate(244.772 -0.432)"/><ellipse class="b" cx="4" cy="3.5" rx="4" ry="3.5" transform="translate(266.772 -0.432)"/><circle class="b" cx="3.5" cy="3.5" r="3.5" transform="translate(292.772 -0.432)"/></g><g transform="translate(682.77 2500.531)"><ellipse class="b" cx="3.5" cy="3" rx="3.5" ry="3" transform="translate(-0.228 0.226)"/><ellipse class="b" cx="3.5" cy="3" rx="3.5" ry="3" transform="translate(24.772 0.226)"/><ellipse class="b" cx="2.5" cy="3" rx="2.5" ry="3" transform="translate(49.772 0.226)"/><ellipse class="b" cx="3.5" cy="3" rx="3.5" ry="3" transform="translate(72.772 0.226)"/><ellipse class="b" cx="3.5" cy="3" rx="3.5" ry="3" transform="translate(97.772 0.226)"/><ellipse class="b" cx="3.5" cy="3" rx="3.5" ry="3" transform="translate(121.772 0.226)"/><ellipse class="b" cx="3.5" cy="3" rx="3.5" ry="3" transform="translate(145.772 0.226)"/><ellipse class="b" cx="4" cy="3" rx="4" ry="3" transform="translate(170.772 0.226)"/><circle class="b" cx="3" cy="3" r="3" transform="translate(195.772 0.226)"/><circle class="b" cx="3" cy="3" r="3" transform="translate(219.772 0.226)"/><circle class="b" cx="3" cy="3" r="3" transform="translate(244.772 0.226)"/><ellipse class="b" cx="4" cy="3" rx="4" ry="3" transform="translate(266.772 0.226)"/><ellipse class="b" cx="3.5" cy="3" rx="3.5" ry="3" transform="translate(292.772 0.226)"/></g><g transform="translate(682.77 2532.143)"><ellipse class="b" cx="3.5" cy="3" rx="3.5" ry="3" transform="translate(-0.228 -0.387)"/><ellipse class="b" cx="3.5" cy="3" rx="3.5" ry="3" transform="translate(24.772 -0.387)"/><ellipse class="b" cx="2.5" cy="3" rx="2.5" ry="3" transform="translate(49.772 -0.387)"/><ellipse class="b" cx="3.5" cy="3" rx="3.5" ry="3" transform="translate(72.772 -0.387)"/><ellipse class="b" cx="3.5" cy="3" rx="3.5" ry="3" transform="translate(97.772 -0.387)"/><ellipse class="b" cx="3.5" cy="3" rx="3.5" ry="3" transform="translate(121.772 -0.387)"/><ellipse class="b" cx="3.5" cy="3" rx="3.5" ry="3" transform="translate(145.772 -0.387)"/><ellipse class="b" cx="4" cy="3" rx="4" ry="3" transform="translate(170.772 -0.387)"/><circle class="b" cx="3" cy="3" r="3" transform="translate(195.772 -0.387)"/><circle class="b" cx="3" cy="3" r="3" transform="translate(219.772 -0.387)"/><circle class="b" cx="3" cy="3" r="3" transform="translate(244.772 -0.387)"/><ellipse class="b" cx="4" cy="3" rx="4" ry="3" transform="translate(266.772 -0.387)"/><ellipse class="b" cx="3.5" cy="3" rx="3.5" ry="3" transform="translate(292.772 -0.387)"/></g><g transform="translate(682.77 2560.485)"><circle class="b" cx="3.5" cy="3.5" r="3.5" transform="translate(-0.228 0.271)"/><circle class="b" cx="3.5" cy="3.5" r="3.5" transform="translate(24.772 0.271)"/><ellipse class="b" cx="2.5" cy="3.5" rx="2.5" ry="3.5" transform="translate(49.772 0.271)"/><circle class="b" cx="3.5" cy="3.5" r="3.5" transform="translate(72.772 0.271)"/><circle class="b" cx="3.5" cy="3.5" r="3.5" transform="translate(97.772 0.271)"/><circle class="b" cx="3.5" cy="3.5" r="3.5" transform="translate(121.772 0.271)"/><circle class="b" cx="3.5" cy="3.5" r="3.5" transform="translate(145.772 0.271)"/><ellipse class="b" cx="4" cy="3.5" rx="4" ry="3.5" transform="translate(170.772 0.271)"/><ellipse class="b" cx="3" cy="3.5" rx="3" ry="3.5" transform="translate(195.772 0.271)"/><ellipse class="b" cx="3" cy="3.5" rx="3" ry="3.5" transform="translate(219.772 0.271)"/><ellipse class="b" cx="3" cy="3.5" rx="3" ry="3.5" transform="translate(244.772 0.271)"/><ellipse class="b" cx="4" cy="3.5" rx="4" ry="3.5" transform="translate(266.772 0.271)"/><circle class="b" cx="3.5" cy="3.5" r="3.5" transform="translate(292.772 0.271)"/></g><g transform="translate(682.77 2589.917)"><circle class="b" cx="3.5" cy="3.5" r="3.5" transform="translate(-0.228 -0.161)"/><circle class="b" cx="3.5" cy="3.5" r="3.5" transform="translate(24.772 -0.161)"/><ellipse class="b" cx="2.5" cy="3.5" rx="2.5" ry="3.5" transform="translate(49.772 -0.161)"/><circle class="b" cx="3.5" cy="3.5" r="3.5" transform="translate(72.772 -0.161)"/><circle class="b" cx="3.5" cy="3.5" r="3.5" transform="translate(97.772 -0.161)"/><circle class="b" cx="3.5" cy="3.5" r="3.5" transform="translate(121.772 -0.161)"/><circle class="b" cx="3.5" cy="3.5" r="3.5" transform="translate(145.772 -0.161)"/><ellipse class="b" cx="4" cy="3.5" rx="4" ry="3.5" transform="translate(170.772 -0.161)"/><ellipse class="b" cx="3" cy="3.5" rx="3" ry="3.5" transform="translate(195.772 -0.161)"/><ellipse class="b" cx="3" cy="3.5" rx="3" ry="3.5" transform="translate(219.772 -0.161)"/><ellipse class="b" cx="3" cy="3.5" rx="3" ry="3.5" transform="translate(244.772 -0.161)"/><ellipse class="b" cx="4" cy="3.5" rx="4" ry="3.5" transform="translate(266.772 -0.161)"/><circle class="b" cx="3.5" cy="3.5" r="3.5" transform="translate(292.772 -0.161)"/></g><g transform="translate(682.77 2618.259)"><circle class="b" cx="3.5" cy="3.5" r="3.5" transform="translate(-0.228 0.497)"/><circle class="b" cx="3.5" cy="3.5" r="3.5" transform="translate(24.772 0.497)"/><ellipse class="b" cx="2.5" cy="3.5" rx="2.5" ry="3.5" transform="translate(49.772 0.497)"/><circle class="b" cx="3.5" cy="3.5" r="3.5" transform="translate(72.772 0.497)"/><circle class="b" cx="3.5" cy="3.5" r="3.5" transform="translate(97.772 0.497)"/><circle class="b" cx="3.5" cy="3.5" r="3.5" transform="translate(121.772 0.497)"/><circle class="b" cx="3.5" cy="3.5" r="3.5" transform="translate(145.772 0.497)"/><ellipse class="b" cx="4" cy="3.5" rx="4" ry="3.5" transform="translate(170.772 0.497)"/><ellipse class="b" cx="3" cy="3.5" rx="3" ry="3.5" transform="translate(195.772 0.497)"/><ellipse class="b" cx="3" cy="3.5" rx="3" ry="3.5" transform="translate(219.772 0.497)"/><ellipse class="b" cx="3" cy="3.5" rx="3" ry="3.5" transform="translate(244.772 0.497)"/><ellipse class="b" cx="4" cy="3.5" rx="4" ry="3.5" transform="translate(266.772 0.497)"/><circle class="b" cx="3.5" cy="3.5" r="3.5" transform="translate(292.772 0.497)"/></g><g transform="translate(682.77 2647.691)"><ellipse class="b" cx="3.5" cy="4" rx="3.5" ry="4" transform="translate(-0.228 0.065)"/><ellipse class="b" cx="3.5" cy="4" rx="3.5" ry="4" transform="translate(24.772 0.065)"/><ellipse class="b" cx="2.5" cy="4" rx="2.5" ry="4" transform="translate(49.772 0.065)"/><ellipse class="b" cx="3.5" cy="4" rx="3.5" ry="4" transform="translate(72.772 0.065)"/><ellipse class="b" cx="3.5" cy="4" rx="3.5" ry="4" transform="translate(97.772 0.065)"/><ellipse class="b" cx="3.5" cy="4" rx="3.5" ry="4" transform="translate(121.772 0.065)"/><ellipse class="b" cx="3.5" cy="4" rx="3.5" ry="4" transform="translate(145.772 0.065)"/><circle class="b" cx="4" cy="4" r="4" transform="translate(170.772 0.065)"/><ellipse class="b" cx="3" cy="4" rx="3" ry="4" transform="translate(195.772 0.065)"/><ellipse class="b" cx="3" cy="4" rx="3" ry="4" transform="translate(219.772 0.065)"/><ellipse class="b" cx="3" cy="4" rx="3" ry="4" transform="translate(244.772 0.065)"/><circle class="b" cx="4" cy="4" r="4" transform="translate(266.772 0.065)"/><ellipse class="b" cx="3.5" cy="4" rx="3.5" ry="4" transform="translate(292.772 0.065)"/></g><g transform="translate(682.77 2678.214)"><ellipse class="b" cx="3.5" cy="3" rx="3.5" ry="3" transform="translate(-0.228 -0.457)"/><ellipse class="b" cx="3.5" cy="3" rx="3.5" ry="3" transform="translate(24.772 -0.457)"/><ellipse class="b" cx="2.5" cy="3" rx="2.5" ry="3" transform="translate(49.772 -0.457)"/><ellipse class="b" cx="3.5" cy="3" rx="3.5" ry="3" transform="translate(72.772 -0.457)"/><ellipse class="b" cx="3.5" cy="3" rx="3.5" ry="3" transform="translate(97.772 -0.457)"/><ellipse class="b" cx="3.5" cy="3" rx="3.5" ry="3" transform="translate(121.772 -0.457)"/><ellipse class="b" cx="3.5" cy="3" rx="3.5" ry="3" transform="translate(145.772 -0.457)"/><ellipse class="b" cx="4" cy="3" rx="4" ry="3" transform="translate(170.772 -0.457)"/><circle class="b" cx="3" cy="3" r="3" transform="translate(195.772 -0.457)"/><circle class="b" cx="3" cy="3" r="3" transform="translate(219.772 -0.457)"/><circle class="b" cx="3" cy="3" r="3" transform="translate(244.772 -0.457)"/><ellipse class="b" cx="4" cy="3" rx="4" ry="3" transform="translate(266.772 -0.457)"/><ellipse class="b" cx="3.5" cy="3" rx="3.5" ry="3" transform="translate(292.772 -0.457)"/></g><g transform="translate(682.77 2706.556)"><circle class="b" cx="3.5" cy="3.5" r="3.5" transform="translate(-0.228 0.201)"/><circle class="b" cx="3.5" cy="3.5" r="3.5" transform="translate(24.772 0.201)"/><ellipse class="b" cx="2.5" cy="3.5" rx="2.5" ry="3.5" transform="translate(49.772 0.201)"/><circle class="b" cx="3.5" cy="3.5" r="3.5" transform="translate(72.772 0.201)"/><circle class="b" cx="3.5" cy="3.5" r="3.5" transform="translate(97.772 0.201)"/><circle class="b" cx="3.5" cy="3.5" r="3.5" transform="translate(121.772 0.201)"/><circle class="b" cx="3.5" cy="3.5" r="3.5" transform="translate(145.772 0.201)"/><ellipse class="b" cx="4" cy="3.5" rx="4" ry="3.5" transform="translate(170.772 0.201)"/><ellipse class="b" cx="3" cy="3.5" rx="3" ry="3.5" transform="translate(195.772 0.201)"/><ellipse class="b" cx="3" cy="3.5" rx="3" ry="3.5" transform="translate(219.772 0.201)"/><ellipse class="b" cx="3" cy="3.5" rx="3" ry="3.5" transform="translate(244.772 0.201)"/><ellipse class="b" cx="4" cy="3.5" rx="4" ry="3.5" transform="translate(266.772 0.201)"/><circle class="b" cx="3.5" cy="3.5" r="3.5" transform="translate(292.772 0.201)"/></g><g transform="translate(682.77 2735.988)"><circle class="b" cx="3.5" cy="3.5" r="3.5" transform="translate(-0.228 -0.231)"/><circle class="b" cx="3.5" cy="3.5" r="3.5" transform="translate(24.772 -0.231)"/><ellipse class="b" cx="2.5" cy="3.5" rx="2.5" ry="3.5" transform="translate(49.772 -0.231)"/><circle class="b" cx="3.5" cy="3.5" r="3.5" transform="translate(72.772 -0.231)"/><circle class="b" cx="3.5" cy="3.5" r="3.5" transform="translate(97.772 -0.231)"/><circle class="b" cx="3.5" cy="3.5" r="3.5" transform="translate(121.772 -0.231)"/><circle class="b" cx="3.5" cy="3.5" r="3.5" transform="translate(145.772 -0.231)"/><ellipse class="b" cx="4" cy="3.5" rx="4" ry="3.5" transform="translate(170.772 -0.231)"/><ellipse class="b" cx="3" cy="3.5" rx="3" ry="3.5" transform="translate(195.772 -0.231)"/><ellipse class="b" cx="3" cy="3.5" rx="3" ry="3.5" transform="translate(219.772 -0.231)"/><ellipse class="b" cx="3" cy="3.5" rx="3" ry="3.5" transform="translate(244.772 -0.231)"/><ellipse class="b" cx="4" cy="3.5" rx="4" ry="3.5" transform="translate(266.772 -0.231)"/><circle class="b" cx="3.5" cy="3.5" r="3.5" transform="translate(292.772 -0.231)"/></g></g></svg>