<svg xmlns="http://www.w3.org/2000/svg" width="24" height="15" viewBox="0 0 24 15"><defs><style>.a{fill:#4285f4;}</style></defs><g transform="translate(0 -4.5)"><path class="a" d="M21.823,9H19.636v2.177H17.459v2.187h2.177v2.177h2.187V13.364H24V11.177H21.823Z"/><path class="a" d="M7.5,19.5c4.328,0,7.2-3.038,7.2-7.326a6.408,6.408,0,0,0-.122-1.248H7.5V13.5h4.257A4.062,4.062,0,0,1,7.5,16.737a4.738,4.738,0,0,1,0-9.475,4.213,4.213,0,0,1,2.988,1.156l2.036-1.954A7.172,7.172,0,0,0,7.5,4.5a7.5,7.5,0,0,0,0,15Z"/></g></svg>