<svg xmlns="http://www.w3.org/2000/svg" width="50" height="50" viewBox="0 0 50 50"><defs><style>.a{fill:none;}.b{fill:#4285f4;}</style></defs><g transform="translate(-236.42 -6867.524)"><circle class="a" cx="25" cy="25" r="25" transform="translate(236.42 6867.524)"/><g transform="translate(241.387 6867.546)"><g transform="translate(2.747 2.747)"><g transform="translate(0 0)"><path class="b" d="M12.168,0a12.168,12.168,0,1,0,3.337,23.872,1.947,1.947,0,1,0-1.066-3.745A8.263,8.263,0,1,1,20.1,14.549a1.947,1.947,0,1,0,3.73,1.118A12.176,12.176,0,0,0,12.168,0Z" transform="translate(17.208 0) rotate(45)"/></g></g><g transform="translate(0)"><path class="b" d="M85.061,5.837A19.955,19.955,0,0,0,51,19.936,20.852,20.852,0,0,0,54.3,31.064,59.266,59.266,0,0,0,61.338,39.8a66.454,66.454,0,0,1,7.39,9.132,1.947,1.947,0,0,0,1.646.907h1.168a1.947,1.947,0,0,0,1.646-.907,66.455,66.455,0,0,1,7.39-9.132,59.255,59.255,0,0,0,7.041-8.737,20.854,20.854,0,0,0,3.294-11.132A19.826,19.826,0,0,0,85.061,5.837ZM77.7,37.176a80.24,80.24,0,0,0-6.745,8.083,80.223,80.223,0,0,0-6.745-8.083c-5-5.471-9.31-10.2-9.317-17.239a16.062,16.062,0,0,1,32.123,0C87.013,26.98,82.7,31.7,77.7,37.176Z" transform="translate(-51.003 0)"/></g></g></g></svg>