<svg xmlns="http://www.w3.org/2000/svg" width="36" height="50" viewBox="0 0 36 50"><g transform="translate(-239.938 -2328.234)"><ellipse cx="18" cy="25" rx="18" ry="25" transform="translate(239.938 2328.234)" fill="none"/><g transform="translate(169.427 2334.469)"><g transform="translate(70.573 -6)"><path d="M88.511,0A17.958,17.958,0,0,0,70.573,17.938c0,12.275,16.053,30.3,16.736,31.057a1.616,1.616,0,0,0,2.4,0c.683-.761,16.736-18.782,16.736-31.057A17.959,17.959,0,0,0,88.511,0Zm0,26.963a9.025,9.025,0,1,1,9.025-9.025A9.035,9.035,0,0,1,88.511,26.963Z" transform="translate(-70.573)" fill="#4285f4"/></g></g></g></svg>