<svg xmlns="http://www.w3.org/2000/svg" width="50" height="50" viewBox="0 0 50 50"><defs><style>.a{fill:none;}.b{fill:#4285f4;}</style></defs><g transform="translate(-236.782 -6913.428)"><circle class="a" cx="25" cy="25" r="25" transform="translate(236.782 6913.428)"/><g transform="translate(237.198 6914.126)"><path class="b" d="M48.881,39.392a7.231,7.231,0,0,0-2.218-4.969c-2.667-2.572-4.9-4.056-7.032-4.672-2.936-.848-5.655-.077-8.081,2.293l-.011.011-2.582,2.562a38.69,38.69,0,0,1-8.141-6.3l-.251-.251a38.694,38.694,0,0,1-6.3-8.14l2.563-2.582.011-.011c2.37-2.427,3.141-5.146,2.293-8.082-.616-2.13-2.1-4.365-4.672-7.032A7.267,7.267,0,0,0,4.379,1.861l-.055.049q-.038.034-.074.071A15.494,15.494,0,0,0,0,13.329C.04,21.18,4.354,30.158,11.542,37.345a46.542,46.542,0,0,0,4.578,3.987A1.91,1.91,0,0,0,18.444,38.3a42.759,42.759,0,0,1-4.2-3.656C7.75,28.153,3.854,20.177,3.82,13.31a11.8,11.8,0,0,1,3.1-8.595L6.931,4.7a3.435,3.435,0,0,1,4.784.173c4.944,5.127,4.586,7.548,2.4,9.788l-3.54,3.566a1.91,1.91,0,0,0-.389,2.122,38.586,38.586,0,0,0,7.678,10.42l.251.251A38.58,38.58,0,0,0,28.536,38.7a1.909,1.909,0,0,0,2.122-.389l3.566-3.54c2.24-2.185,4.661-2.542,9.788,2.4a3.435,3.435,0,0,1,.173,4.784l-.014.015a11.762,11.762,0,0,1-8.507,3.1h-.087a24.761,24.761,0,0,1-9.423-2.231,1.91,1.91,0,0,0-1.513,3.507,28.171,28.171,0,0,0,10.916,2.543h.107a15.46,15.46,0,0,0,11.242-4.25c.024-.024.048-.049.07-.074l.05-.055A7.231,7.231,0,0,0,48.881,39.392Z" transform="translate(0 -0.002)"/></g></g></svg>