<svg xmlns="http://www.w3.org/2000/svg" xmlns:xlink="http://www.w3.org/1999/xlink" width="298.58" height="417.801" viewBox="0 0 298.58 417.801"><defs><linearGradient id="a" y1="0.5" x2="1" y2="0.5" gradientUnits="objectBoundingBox"><stop offset="0" stop-color="gray" stop-opacity="0.251"/><stop offset="0.535" stop-color="gray" stop-opacity="0.122"/><stop offset="1" stop-color="gray" stop-opacity="0.102"/></linearGradient></defs><g transform="translate(0)"><path d="M480.843,76.854,332,168.452s0,188.919,148.845,291.966C629.689,357.371,629.689,168.452,629.689,168.452Z" transform="translate(-331.998 -76.854)" fill="#d5dbe5"/><path d="M601.244,76.854,598.7,78.42V458.631c.845.6,1.69,1.2,2.544,1.787C750.089,357.371,750.089,168.451,750.089,168.451Z" transform="translate(-451.51 -76.854)" fill="#fff" opacity="0.155"/><g transform="translate(101.119 161.153)" opacity="0.7"><path d="M356.613,327.208l28.06,25.721,34.784-50.18,14.03,11.692-48.815,61.872-39.751-44.428Z" transform="translate(-344.921 -302.75)" fill="url(#a)"/></g><path d="M370.405,328.306l22.762,20.865,32.246-47.421,11.381,9.484-43.627,56.9L360.921,332.1Z" transform="translate(-250.971 -141.148)" fill="#fff"/><rect width="12.275" height="15.783" transform="translate(236.069 126.596) rotate(-2.221)" fill="#6c63ff"/><path d="M668.136,402.245s-16.987-8.116-16.715-1.107,17.122,11.621,17.122,11.621Z" transform="translate(-475.133 -220.892)" fill="#ffb9b9"/><path d="M686.048,505.3s-8.014,19.615-10.975,33.769-7.47,33.633-1.67,47.448,22.292,54.416,22.462,58.8-1.412,8.829,2.092,8.693,22.576-6.14,23.35-8.8-6.507-9.4-6.507-9.4l-17.979-56.338,18.759-36.7,13.53,54.756,2.65,68.339s13.006-4.014,14.894-.578c0,0,5.827-8.123,6.568-11.662s-2.752-70.968-2.752-70.968,11.939-76.8,2.3-76.429S705.384,483.493,686.048,505.3Z" transform="translate(-483.726 -264.643)" fill="#14406d"/><path d="M708.879,771.117s-8.89,19.649-9.732,20.559-6.635,9.909-2.255,9.74,14.724-4.958,22.338-12.273,17.652-19.989,16.742-20.831-7.145-3.233-7.145-3.233Z" transform="translate(-494.785 -385.255)" fill="#0056aa"/><path d="M781.79,794.494s-.537,8.8-2.153,12.368-1.412,8.83,2.968,8.66,15.7-2.364,15.7-2.364.672-5.291-.238-6.133-4.788-10.344-3.138-13.04S781.79,794.494,781.79,794.494Z" transform="translate(-532.174 -397.725)" fill="#0056aa"/><path d="M785.713,278.6s9.339,14.555,12.979,17.923-6.6,10.786-6.6,10.786l-18.331,2.466s.231-16.681-.713-18.4S785.713,278.6,785.713,278.6Z" transform="translate(-529.616 -167.26)" fill="#ffb9b9"/><path d="M751.344,309.853s3.776,6.873,7.281,6.738,21.632-7.859,22.406-10.521,6,19.071,6,19.071L742.68,403.2l-10.82-7.477,5.242-45.832,4.306-24.736Z" transform="translate(-511.18 -179.467)" fill="#f6f7fb"/><path d="M764.577,375.431a24.549,24.549,0,0,0-2.721,11.513c.007.175.014.35.029.525.42,8.109,3.407,17.487,4.479,24.308.778,4.892.556,8.463-2.307,9.3-6.941,2.024,1.012,3.471-25.843,12.409s-31.541,1.223-31.609-.529,3.8-15.064,2.893-15.907-12.735,11.023-16.307,9.407-.408-10.514-.408-10.514,8.048-18.739,7.878-23.12,12.191-25.042,12.191-25.042l8.408-54.729s3.233-7.145,7.58-8.191a10.768,10.768,0,0,1,7.953,1.446l-7.274,16.077-7.674,28.376,1.284,10.48s8.924-18.773,14.785-26.02,18.358-24.4,18.358-24.4,2.917-9.844.715-12.786,9.187-3.392,14.044,8.7c2.574,6.411,6.753,15.971,9.37,24.872,2.333,7.886,3.435,15.257,1.124,19.471C777.992,357.52,769.107,365.981,764.577,375.431Z" transform="translate(-493.09 -175.186)" fill="#4285f4"/><path d="M838,377.995c-3.532,6.437-12.417,14.9-16.947,24.349-1.183-4.263-2.626-8.673-2.626-8.673s-5.536-29.619,10.839-37.274a10.959,10.959,0,0,1,7.611,2.127C839.213,366.41,840.315,373.781,838,377.995Z" transform="translate(-549.57 -202.098)" opacity="0.1"/><path d="M708.31,392.191l-13.882,4.048-19.275.748-1.983,16.749,31.677,2.282S712.759,393.773,708.31,392.191Z" transform="translate(-484.881 -218.16)" fill="#4285f4"/><path d="M765.712,494.231s-18.572,3.081-14.333,8.67,20.691-.287,20.691-.287Z" transform="translate(-519.645 -263.885)" fill="#ffb9b9"/><path d="M796.862,461.5c.42,8.109,3.407,17.488,4.479,24.308-5.917,5.6-11.543,10.539-13.663,10.621-4.381.17-11.424-.434-14.019.544s-4.116-15.635-4.116-15.635,1.548-5.325,8.455-8.225A96.189,96.189,0,0,0,796.862,461.5Z" transform="translate(-528.067 -249.22)" opacity="0.1"/><path d="M807.4,346.865s14.827-2.33,14.026,22.27,1.563,40.3-4.4,44.921-25.333,25.551-29.714,25.721-11.424-.434-14.018.544-4.116-15.635-4.116-15.635,1.548-5.325,8.455-8.225,23.18-13.183,23.045-16.688-4.116-15.635-4.116-15.635S791.022,354.52,807.4,346.865Z" transform="translate(-527.901 -197.823)" fill="#4285f4"/><circle cx="19.29" cy="19.29" r="19.29" transform="translate(223.734 94.314)" fill="#ffb9b9"/><path d="M740.474,229.439a3.725,3.725,0,0,1-1.622.814,1.157,1.157,0,0,1-1.341-.929,4.809,4.809,0,0,1-1.84,2.36c-.9.47-2.294.076-2.424-.932a4.252,4.252,0,0,1-.979,2.066,1.466,1.466,0,0,1-2.061.069,52.99,52.99,0,0,1,.275,6.563c.124,2.189.708,4.509,2.361,5.948,2.412,2.1,6.038,1.581,9.211,1.183a2.8,2.8,0,0,1,1.443.079c1.188.506,1.134,2.16,1.15,3.451a9.588,9.588,0,0,0,8.4,9.1,4.806,4.806,0,0,0,3.572-.872c.9-.763,1.361-2.008,2.393-2.581,1.679-.933,3.715.428,4.943,1.9s2.437,3.294,4.339,3.565c2.515.358,4.43-2.205,5.37-4.565a26.615,26.615,0,0,0-.529-20.679C767.879,224.542,749.941,222.731,740.474,229.439Z" transform="translate(-510.439 -143.484)" fill="#2f2e41"/></g></svg>