<svg xmlns="http://www.w3.org/2000/svg" width="21.938" height="15.083" viewBox="0 0 21.938 15.083"><defs><style>.a{fill:#4285f4;}</style></defs><g transform="translate(0 0)"><path class="a" d="M21.006,81.453c-.6-1.059-1.241-1.253-2.556-1.327C17.136,80.037,13.833,80,10.972,80s-6.171.037-7.484.125-1.959.269-2.56,1.329S0,84.331,0,87.537v.011c0,3.192.315,5.027.928,6.073s1.246,1.25,2.559,1.34,4.618.122,7.485.122,6.165-.045,7.479-.121,1.961-.281,2.556-1.34c.618-1.046.931-2.881.931-6.073v-.011C21.938,84.331,21.625,82.511,21.006,81.453ZM8.227,91.655V83.428l6.856,4.113Z" transform="translate(0 -80)"/></g></svg>